<mxfile host="app.diagrams.net" agent="Mozilla/5.0 (Windows NT 10.0; Win64; x64) AppleWebKit/537.36 (KHTML, like Gecko) Chrome/131.0.0.0 Safari/537.36" version="26.0.4">
  <diagram name="第 1 页" id="cr-dGFzipO0WTIC9n0gA">
    <mxGraphModel dx="989" dy="532" grid="1" gridSize="10" guides="1" tooltips="1" connect="1" arrows="1" fold="1" page="1" pageScale="1" pageWidth="827" pageHeight="1169" math="0" shadow="0">
      <root>
        <mxCell id="0" />
        <mxCell id="1" parent="0" />
        <mxCell id="rwMZQ3IcZu2vBEru35D5-1" value="" style="shape=image;verticalLabelPosition=bottom;verticalAlign=top;imageAspect=0;aspect=fixed;image=data:image/png,iVBORw0KGgoAAAANSUhEUgAAAMgAAADICAYAAACtWK6eAAAAAXNSR0IArs4c6QAAC8BJREFUeF7tnU2IZUcVgE+1zMatgckQDUREkcRkkaCunAiKiiC6UNEoUQwSMvDqPmclKCq6EEW6qnt6ghr8A1EQI4GoKC4m7nQUZxFFiCYZxJgg2QRX09Nd5hF7ItPv9a16XXVu1b1fw+zqnqrznfrueT/31RgZ8M9a640xs4QlPOacuzthvDBHPK2xsIrPuH+k6R9SbkTXdRdE5HTCDMmCMEc83bGwis+4fySCHGaEhP375mBElazil98/EkEQ5BoBOsjhzYAgCIIgRzQSBEEQBEEQPgjof7UtwkssXmLF7JMq33iOZfNq5BFT5NgxvMTiJRYvsXiJxUusmDumxt1dY46YXGPH0EHoIHQQOggdJOaOqXF315gjJtfYMXQQOggdhA5CB4m5Y2rc3TXmiMk1dgwdhA5CB6GD0EFi7pgad3eNOWJyjR1DB6GD0EHoIHSQmDumxt1dY46YXGPHDNpBZrPZJzc2Nu6NXqwx393c3Px+7PjFOOaIpzUWVvEZ948cVJD+5TECAsMSQJBh+TN75QQQpPICsbxhCSDIsPyZvXICCFJ5gVjesAQQZFj+zF45gSoE6bruPSGED4jIXSJyyhhzY+XcWF4BAiGEZ0XkX8aYiyGEh733vyowTVLIQQXpuu4jIvJ1EbkpadUMngqByyLyGefcw0MlPIggZ86cedWJEyd+LCLvGCpx5m2HQAjh0f39/Xu2t7df0F61uiDz+fxNIYSfi8hrtJNlvnYJhBCeMMa82zn3pGYWqoLMZrObNzY2/igiN2gmyVyjIfD07u7uXTs7O89rZaQqiLX2r8aYN2glxzzjIxBC+J33/q1amZmu67ZE5PYME15yznWr4lhrHzDG7GSYhxATJxBC+JD3/ierMKQ+dHkUzoUgIRPvIw9cs9YuPr7j49tMsCce5s/OudtWMVjjkfqVOFUEsda+zxjzyMSLSvoZCYQQ3uy9v7gsZHOCdF33AxH5eEY+hJo4gRDCV733nx2LIH8RkTdOvKakn5fABefc28ciyL/5aDfv7iCaPO2cu2UsguT6IIB9AYFrBJxzS7+maPE9CIKwsbMTQJDsSAk4JgIIMqZqkkt2AgiSHSkBx0QAQcZUTXLJTkBFEGutN8bccdzVhxC+471ffCF46C/j4yzHXSbXj4jAEYJ8QkQW/4779yeVp3kR5Lh14vplBFYJkpMWguSkSSxVAgiiipvJWiOAIK1VjPWqEkAQVdxM1hoBBGmtYqxXlQCCJOIOIXxjb29v59y5c08lXsrwDARe/N3Pa0MI1hgzyxCuNwSC9CJ6eUAIYct7bxMuYWghAtbah4wxnyoU/lpYBEkgvLe397rt7e2/J1zC0EIE5vP5rSGExwuFR5B1wGrcTdZZ11Sv0fhyWKPmo/miUAPWVDf7OnkjSAK1scBKSHnyQ8dSc5WD48YCa/K7PgHAkDVv7uC4IWEl1JShGQkMWXN+k76kkLwHybi7M4RCkMMQVx49OiSsDLUmxBoEhqw5HYQOssaW1b0EQeggujuusdkQpHFBrLUnjTH3iciJxvae9nL3Qgjf8t4/lzIxgjQuSNd13xORe1OKPtWxIYRveu/vT8kfQdoX5Isi8oWUok947Jeccwte0X8IgiDRm2UEAxEkQxGb+pi36zo6SHzRESSe1cqRCJIBYqUhpivIWA6OS/0mnQ6SpGJrgnBw3PXlRZCkDZ86uClBUpM7avxkfw9CB0naRgiShCtx8JAf+a1aKoIkFRFBknAlDkaQRGD1DUeQkjVBkJJ0VWIjSEnMCFKSrkpsBCmJGUFK0lWJjSAlMSNISboqsRGkJGYEKUlXJTaClMSMICXpqsRGkJKYEaQkXZXYCFISM4KUpKsSe7qCdF23JSK3Z8B8yTnXLYuDIBnoDhuiKUE4OG7JZuFhxaIGNSUIx/4gSFEblgRHkAzE+cFUBoiVhkCQDIVBkAwQKw2BIBkKgyAZIFYaAkEyFAZBMkCsNASCZCgMgmSAWGkIBMlQGATJALHSEAiSoTAIkgFipSEQJENhECQDxEpDIEiGwiBIBoiVhpiuIBwcV+mWrGtZrQnCwXHX7x+exSpqVFOC5CTBwXE5aY43FoKUrC2Pu5ekqxIbQUpiRpCSdFViI0hJzAhSkq5KbAQpiRlBStJViY0gJTEjSEm6KrERpCRmBClJVyU2gpTEjCAl6arERpCSmBGkJF2V2AhSEjOClKSrEhtBSmJGkJJ0VWJPVxAOjlPZYK1P0pQgHBy3ZLvxsGJRB5sShIPjEKSoDUuCI0gG4vxgKgPESkMgSIbCIEgGiJWGQJAMhUGQDBArDYEgGQqDIBkgVhoCQTIUBkEyQKw0BIJkKAyCZIBYaQgEyVAYBMkAsdIQCJKhMAiSAWKlIRAkQ2EQJAPESkNMVxAOjqt0S9a1rNYE4eC46/cPz2IVNaopQXKS4OC4nDTHGwtBStaW34OUpKsSG0FKYkaQknRVYiNIScwIUpKuSmwEKYkZQUrSVYmNICUxI0hJuiqxEaQkZgQpSVclNoKUxIwgJemqxEaQkpgRpCRdldgIUhIzgpSkqxIbQUpiRpCSdFViT1cQDo5T2WCtT9KUIBwct2S78bBiUQebEoSD4xCkqA1LgiNIBuL8YCoDxEpDIEiGwiBIBoiVhkCQDIVpShBr7eeMMV/OkPfoQ4QQPu+9/0pKokN+csl7kAzvQay1J40xnxaRV6QUfoJjd0MID3nvn0vJHUEO02qqg6QUm7HpBBAEQdJ3zYSuQBAEmdB2T08VQRAkfddM6AoEQZAJbff0VEcjyFQPjksvOVekEBhYEA6Ou75Yqc9ipRSbsekEhhQkfbWrr5jswXE5IRLrMAEESdgVY4GVkPLkh46l5qPpIFeuXDl1/vz5Zye/MysA0HXdKRF5pvRSNF5Wj0YQEXnAOfdg6aIQv5+AtXZmjPH9I483AkES+IUQ/hNC+PDW1tYvEi5jaGYCXde9P4TwQ2PMKzOHPhQOQUoTJn7TBBCk6fKx+NIEEKQ0YeI3TQBBmi4fiy9NAEFKEyZ+0wQQpOnysfjSBFQEGcvBcaWLQfz6CKwShIPj6qsVKxqAwCpBOLRhgGIwZX0EEKS+mrCiigggSEXFYCn1EUCQ+mrCiioigCAVFYOl1EdgTIIsfhuw+I0AfxDIReCfzrlXLwvW3KdY1to/GGPuzEWGOBAQkd87594yFkEeNMbcT1khkJHAtnNuNhZB3mmM+XVGOISaOIEQwmnv/W9HIcgiCWvtZWPMzROvK+lnIBBCeMJ7//pVobK+B9E4OG6RSNd194nItzPwIQQEPuqc+9ERgrR1cNxBIl3XPS4it1JfCByDwMo358eIufJSlVNNDmafz+c37e/vLz7RurFEMsQcPYHLu7u7d+7s7DyvlamqIIukZrPZbcaYXxpjln6GrZU48zRH4EljzLs2Nzf/prlydUEWyZ09e/aGq1ev/tQY8zbNZJmrTQIhhEf39/fv2d7efkE7g0EEOUjSWvuxF89P+hrfsmuXvY35QghPbWxszDc3Nx8ZasWDCvJ/b97fKyIfFJE7QginjDEnhwLCvMMRCCEsjo79h4hcNMb8zDn3m+FW89LMVQgyNATmh8AqAgjC3oDAEQQQhO0BAQRhD0BgPQJ0kPW4cdVECCDIRApNmusRGFSQNQ74uuSc61JSZY54WmNhFZ9x/8hBBVnjseTHnHN396f18gjmiKc1FlbxGfePRJDDjJCwf98cjKiSVfzy+0ciCIJcI0AHObwZEARBEKTW70HGcscij/6XKgcjNFjFr6Z/JB2EDkIHoYPI6f57xbURVb7x1LjzjmWOhFr3DqWD0EHoIHQQOkjvrfKlk2cuiLTPKibX2DF0EDoIHYQO0v5dcSx3d408YrtDzDg6CB2EDkIHoYPE3C017u4ac8TkGjuGDkIHoYPQQeggMXdMjbu7xhwxucaOoYPQQeggdBA6SMwdU+PurjFHTK6xYwbtIP/7rxeW/i9BKxJwzrl5bHKLccwRT2ssrOIz7h/5X+Zgw3XA3Gc1AAAAAElFTkSuQmCC" vertex="1" parent="1">
          <mxGeometry x="160" y="160" width="40" height="40" as="geometry" />
        </mxCell>
        <mxCell id="rwMZQ3IcZu2vBEru35D5-2" value="TMC" style="text;html=1;align=center;verticalAlign=middle;whiteSpace=wrap;rounded=0;" vertex="1" parent="1">
          <mxGeometry x="150" y="200" width="60" height="30" as="geometry" />
        </mxCell>
        <mxCell id="rwMZQ3IcZu2vBEru35D5-3" value="Request" style="rounded=0;whiteSpace=wrap;html=1;" vertex="1" parent="1">
          <mxGeometry x="280" y="160" width="80" height="40" as="geometry" />
        </mxCell>
        <mxCell id="rwMZQ3IcZu2vBEru35D5-4" value="" style="endArrow=classic;html=1;rounded=0;exitX=1;exitY=0.5;exitDx=0;exitDy=0;entryX=0;entryY=0.5;entryDx=0;entryDy=0;" edge="1" parent="1" source="rwMZQ3IcZu2vBEru35D5-1" target="rwMZQ3IcZu2vBEru35D5-3">
          <mxGeometry width="50" height="50" relative="1" as="geometry">
            <mxPoint x="420" y="300" as="sourcePoint" />
            <mxPoint x="470" y="250" as="targetPoint" />
          </mxGeometry>
        </mxCell>
        <mxCell id="rwMZQ3IcZu2vBEru35D5-5" value="" style="rounded=0;whiteSpace=wrap;html=1;dashed=1;" vertex="1" parent="1">
          <mxGeometry x="160" y="240" width="450" height="230" as="geometry" />
        </mxCell>
        <mxCell id="rwMZQ3IcZu2vBEru35D5-6" value="Message Mapping" style="shape=parallelogram;perimeter=parallelogramPerimeter;whiteSpace=wrap;html=1;fixedSize=1;" vertex="1" parent="1">
          <mxGeometry x="190" y="332.5" width="90" height="45" as="geometry" />
        </mxCell>
        <mxCell id="rwMZQ3IcZu2vBEru35D5-9" value="" style="endArrow=classic;html=1;rounded=0;exitX=0.5;exitY=1;exitDx=0;exitDy=0;entryX=0.5;entryY=0;entryDx=0;entryDy=0;" edge="1" parent="1" source="rwMZQ3IcZu2vBEru35D5-3" target="rwMZQ3IcZu2vBEru35D5-6">
          <mxGeometry width="50" height="50" relative="1" as="geometry">
            <mxPoint x="380" y="210" as="sourcePoint" />
            <mxPoint x="230" y="220" as="targetPoint" />
            <Array as="points">
              <mxPoint x="320" y="260" />
              <mxPoint x="235" y="260" />
            </Array>
          </mxGeometry>
        </mxCell>
        <mxCell id="rwMZQ3IcZu2vBEru35D5-10" value="Client" style="text;html=1;align=center;verticalAlign=middle;whiteSpace=wrap;rounded=0;" vertex="1" parent="1">
          <mxGeometry x="160" y="240" width="60" height="30" as="geometry" />
        </mxCell>
        <mxCell id="rwMZQ3IcZu2vBEru35D5-11" value="" style="rounded=1;whiteSpace=wrap;html=1;" vertex="1" parent="1">
          <mxGeometry x="340" y="280" width="73" height="150" as="geometry" />
        </mxCell>
        <mxCell id="rwMZQ3IcZu2vBEru35D5-29" value="" style="group" vertex="1" connectable="0" parent="1">
          <mxGeometry x="346.5" y="280" width="60" height="150" as="geometry" />
        </mxCell>
        <mxCell id="rwMZQ3IcZu2vBEru35D5-22" value="" style="shape=image;verticalLabelPosition=bottom;verticalAlign=top;imageAspect=0;aspect=fixed;image=data:image/png,iVBORw0KGgoAAAANSUhEUgAAAMgAAADICAYAAACtWK6eAAAAAXNSR0IArs4c6QAAD9FJREFUeF7tnXvwb9UYxp+MPyqSkhFKM8plSMdxv5RrHFKY3EMu40xu1SGFhI5RSZmcoiEjch2XjEvp4l7JrUQick4ipygdIZxMg/3Mb3+nfVZ77+/a67vXWvvd+3lnzj/nty7vetb7+e6913UzyKSAFGhUYDNpIwWkQLMCAkTRIQVaFBAgCg8pIEAUA1IgTAE9QcJ0U66JKCBAJtLRamaYAgIkTDflmogCAmQiHa1mhikgQJp1Ww5gGYBtAFwK4GIAN4bJrFxWFRAgt+25/QGcAGDbmk49FcAhAsVquHf3W4BsqtmZAPaaI+N1ZRo+UWQjV0CA3NrBqwG8w7O/1wHYFcBGz/RKZlQBAbLUcbsBuATA7Tr045riVWtVh/RKalABAbLUaacAWNmx/24GsHnHPEpuTAEBstRh5wHYI6DvdgZwZUA+ZTGigABZ6qirAewQ0GcrAJwbkE9ZjCggQJY66loA2wf02T4AzgjIpyxGFBAgAsRIqOZxU4AIkDyRZ6RWASJAjIRqHjcFiADJE3lGahUgAsRIqOZxU4AIkDyRZ6RWASJAjIRqHjcFiADJE3lGahUgAsRIqOZxU4AIkDyRZ6RWASJAjIRqHjcFiADJE3lGahUgAsRIqOZxU4AIkDyRZ6RWASJAjIRqHjcFiADJE3lGahUgAsRIqOZxU4AIkDyRZ6RWASJAjIRqHjcFiADJE3lGahUgAsRIqOZxU4AIkDyRZ6RWASJAjIRqHjcFiADJE3lGahUgAsRIqOZxU4AIkDyRZ6RWASJAjIRqHjcFiADJE3lGahUgAsRIqOZxU4AIkDyRZ6RWASJAjIRqHjcFiADJE3lGahUgAsRIqOZxU4AIkDyRZ6RWASJAjIRqHjcFiADJE3lGahUgAsRIqOZxU4AIkDyRZ6RWASJAjIRqHjcFiADJE3lGahUgAsRIqOZxU4AIkDyRZ6RWASJAjIRqHjcFiADJE3lGahUgAsRIqOZxU4AIkDyRZ6RWASJAjIRqHjcFiADJE3lGahUgAsRIqOZxU4AIkDyRZ6RWASJAjIRqHjcFiADJE3lGahUgAsRIqOZxU4AIkDyRZ6RWASJAjIRqHjcFiADJE3lGahUgAsRIqOZxU4AIkDyRZ6RW64DsBOAwAMsBLAOwpRHdLbq5HsBV5b8rAVwA4HwA/7bYGF+fLQPyZACnA9jat7FKF0UBQvI1ACcB2BilhoyFWgVkBYCzM+qmqm+rwB8BHAHgtDGJYxGQLQD8BsCOY+qIEbXlp0X/vAjAFWNok0VA1gA4aAzij7gNGwDwKX+R9TZaBOR6ANtZF34C/vN7ZF8AZ1luq0VA/mdZ8An6vjeAM622W4BY7Tk7ft9UDsOvtePyrZ4KEIu9Zs/ny0tIbrbmugCx1mN2/X03gLdbc1+AWOsxu/7+EwBXPtxgqQkCxFJv2ff1RAAHW2qGALHUW/Z9/Q+AXQBcbaUpAsRKT43Hz9VFU4600hwBYqWnxuMnFzc+zkpzBIiVnhqPn7cA2MrKyl8BMp7As9SSpwE4x4LDAsRCL43PR45kcURr8CZABt9Fo3TwcADHWGiZALHQS+Pz8ahyc9XgWyZABt9Fo3Tw/QDeYKFlAsRCL43Px1MAHGChWQLEQi+Nz0cBErFPtWEqoriJihYgEYUWIBHFTVS0AIkotACJKG6iogVIRKEFSERxExUtQCIKLUAiipuoaAESUWgBElHcREULkIhCC5CI4iYqWoBEFFqARBQ3UdECJKLQAiSiuImKFiARhRYgEcVNVLQAiSi0AIkobqKiBUhEoQVIRHETFS1AIgotQCKKm6hoARJRaAGyqbg8Y4p3BtK4OvshAO4YUf8+iv4wgFf3UVDsMrTcPbbCccrndQInlxdp/r2miucAeB2AJ8apfuFSBcjCEjYXMOUnyC8APB/Arz313Q/Apz3TpkwmQCKqPVVAvlzc+8eA73rt8lMAnBuxP0KKFiAhqnnmmSIgvBjzoZ761CV7CYBPLpC/76wCpG9FK+VNDZC/AdgVAK9ZbjIe5fksAA8A8C0AHwfwFycx7zLndWhDMAESsRemBsiBxaWlH2jQc5sCni8CeJLz9z+XwPyo8v/LAPwsYr90KVqAdFGrY9opAcL74O/fog+/LfiNUWd84twPwL8qf+TTxYWpo/y9JBcgvchYX8iUAHkxgM80aPl6ACfN0fldAN5ZScMRsM9F7BvfogWIr1IB6aYCyLUA7tGgz7YA/gDgDnP0+xOAuztpbgSwdYDufWYRIH2q6ZQ1FUB44SUvvqwzn6fHLJ97kvrHALw8Yv/4FC1AfFQKTDMVQO4N4HcNGnHYd7mnfh8sRrQI1Mw4y84P+5wmQCKqPwVAfgzgkQ0a3gvA7zvo+9viO+a+lfTbFctQru+QP0ZSLVaMoWpZ5hQAeVNxC9P7GjQ8FMB7O+rL7xB+j8zs8jmjYx2L75xcT5DOkvlnGBogXB/FgLsKwAPL1bTuh7F/65ZS8hefv/x19o1ikeKeHQvcB8AZlTycVefsei4TIBGVHwIgPwDwVgB8FapbG8VlIW8s1051lcJ9JXLzh7Sft8rydtmZrSpGsk7o6liP6QVIj2L2ESB9usN9DOxgH3tEcaPrtz2GY6tlvaeEr6780IWHpwN4bqXAFQDO9mlApDQCJJKwLDbkF7Qvd54XMAL0aAB8LZo3ZzHz8cEAft7g8LHFzPhhAY35Zbmea5Z1BwDcaJXLBEhE5XMBwhuReDNSiL2tZU6jWt5lAB7UUsGlc/7e5pu7OS7nhKEACYkizzw5ADkPwONb/ONK2tm8BF9dfuikvSuA6zzaxxGq4xvSLfqrzzVdXNs1s+/OaZOHu8FJBEiwdPMz5gBkFwDrGlzjeqjqRByT8X2f7/1VO63YO77/nOYRgvUNad4MgN8nocYJwi9VMhPEQ0ILWzCfAFlQwLbsqQH5VAHHSxscei0AzlS7dhOAexYjWdX94g8D8JOWhn2h3E7blGRtselp5wV0dUeyuNyEy05ymACJqHpqQLhZiR+5rhGAtk1Mdfs4OGfC8uqMp5Fc0vC3pwI4Z0FNuSqYq4Nn9igAHK7OYQIkouopAeEGo6Y1T1wusbKlnRcBeLjz94MbPvS52++ZLWX1sRvwewCeUKmDK3r5oZ7DBEhE1VMCwvf+umUdO5bLzec1kzPrv6ok2rz8UOZ6qpldU86+cxdgnXFUi6NXi1rdBCSX1G+/aMEB+QVIgGi+WVIC0vRxvgbAQR4OEy5CVjXu8uMHOxcj8inDD/q2xYecaOzjfCvuLHTnYr7jPFU8mtRLEgHSi4z1haQChKNWBKTONgDgfvB5xhEpjkyFGr8ZOEjQl93NGW7mAAMHGlKbAImoeCpAeFACP7Rd27dmCLetuVzzxHVZXY0f81zrtUXXjC3pHwvgwsrfX1WMtn2kx/J9ixIgvkoFpEsFyAuKY3Q+X+PfZ4uTDV/Y0e/DARzTIc99ilcfTuQ1bbntUNQmSV8G4BOV/+HI2cWhhS2QT/tBFhBvXtZUgDA4+RHrGs+putM8J2v+znmI45xTRuqK4dlV/EbhvvO+7WgAXPZSNX6bdH1KcUaeS/pDdGDdeoL03bOV8lIA0nRgAhcSNs1V+DT5hnI2/CvOfg8uA3lM8bH+CgC7+xQUmIbHBHElb9VClpzMBi+4O5FPO+5f4WoCTob6mADxUSkwTQpAeHp63SmEBxTDoh8K9NvNthEAJw4ZbD4f/H1Uy8GFuzgFHQWAr4C+9teGpxsPyebZwT4mQHxUCkwTAgh/ud3TCTkn4Q7BzlziaSI8VcQ1HunJ93jL5g5dczl+9cN9XtuoAZ90rvFwbS7a9DEB4qNSYJoQQFgV5wCqpwzy/3h+rfuLyv93F/bNXOW22p0C/R5KNr4KuevHOA9Tnbxs85WbwOrWlHU5tVGARIyGUEC4zILLLarWtDebrzzuMgxO8PneyxGx+QsXzeX4T3dK4SsWX7XmGUe8mr4zuJyfy/p9TID4qBSYJhSQuqFWzma7eze4JJxPENcWXW4e2Nwo2dwfgK3KpTN3nlMb4agbFuaPD2flfU2A+CoVkC4UEK685doo98oydynHs4sFihxlco2vFb6jNAHNSpqF23Y55Fw17lXh8HKTtW035vcdr3zzNQHiq1RAulBAWBVfqdxNS1x4yGsCOK7Pj3kOXbq2W8s+8YAmZM/CHwu227VXFv//0Zr/536YpiUv/OjnHvotO7RKgHQQq2vSRQBhXTzhnJuTqsYP9dcUw5RXNMyef73mvb2r30NLz+UvdUf/MOA5gsfBCG784oJLbjluMv648MO9iwmQLmp1TLsoIJwJ51Pkq571crWtC5Rn1sEn410hXb4d3AZxONydmfdptADxUSkwzaKAzKo9FQA3MPFXssk4cvX9hqHgQPcHlY2Tfs8I3FkYCgcFECARw6AvQOjiP8pXKp527h6kxmsDOCnGJeJjt7aLety2c/0Vt+8SrFATIKHKeeTrE5BqdZz3mF0LwFWu/Dcl4zotjmx9s6XR/NHgKS5N+2R89RIgvkoFpIsFSIAro8zCLcJ11yNwdTMXJvZhAqQPFRvKECARxU1UtPaDRBRagEQUN1HRAiSi0AIkoriJihYgEYUWIBHFTVS0AIkotACJKG6iogVIRKEFSERxExUtQCIKLUAiipuoaAESUWgBElHcREULkIhCC5CI4iYqWoBEFFqARBQ3UdECJKLQAiSiuImKFiARhRYgEcVNVLQAiSi0AIkobqKiBUhEoQVIRHETFc1zudyLTxNV3a0a9+7sbrnzpBYgeXTvs9ZjAbylzwJjlSVAYimrctsUOMLzoLrsKgqQ7F0wSQdWFQd28xq7wZsAGXwXjdLBvYo7Gs+y0DIBYqGXxuXjf4vzuHgFddtpMoNpsQAZTFdMxhEe4dr1oLls4giQbNJPtuLjARxqpfUCxEpPjcfPPQBcYKU5AsRKT43DT141wRutzJgAMdNVo3B0TwC8icqMCRAzXWXeUXNPDyouQMzHnYkGcEiXlw/xfnVTJkBMdZdJZ7l2jgddm5gYdBW2CAjPja27Bcpk9EzA6SOLN5XVVttpEZDzixPId7cq+MT8Pjrwgp3ByGQREG62WTkYBeVInQK3FNfZ7TeGm7ksAsILNXkV8e0Vm4NUgLdW7Q3gwkF619Epi4CwibwXj1eAyYajAK/X5k5BLiXZMBy3FvPEKiBs9YEATlys+crdgwKXlVeynQyAF6SOyiwDwo7gjUd8mnAYUSNbaUJzPYC15bAtr6xbl6baPLVYB6Sq2vJyn0EeJcddK/dwXFOCMe6WOq0bEyCT6jg1No0CAiSNzqrFqAICxGjHye00CgiQNDqrFqMKCBCjHSe30yggQNLorFqMKiBAjHac3E6jgABJo7NqMaqAADHacXI7jQL/B+0HnOdawEAcAAAAAElFTkSuQmCC" vertex="1" parent="rwMZQ3IcZu2vBEru35D5-29">
          <mxGeometry x="15" width="30" height="30" as="geometry" />
        </mxCell>
        <mxCell id="rwMZQ3IcZu2vBEru35D5-23" value="&lt;font style=&quot;font-size: 8px;&quot;&gt;ADC/DAC&lt;/font&gt;" style="text;html=1;align=center;verticalAlign=middle;whiteSpace=wrap;rounded=0;" vertex="1" parent="rwMZQ3IcZu2vBEru35D5-29">
          <mxGeometry y="20" width="60" height="30" as="geometry" />
        </mxCell>
        <mxCell id="rwMZQ3IcZu2vBEru35D5-28" value="" style="group" vertex="1" connectable="0" parent="rwMZQ3IcZu2vBEru35D5-29">
          <mxGeometry y="50" width="60" height="100" as="geometry" />
        </mxCell>
        <mxCell id="rwMZQ3IcZu2vBEru35D5-24" value="&lt;font style=&quot;font-size: 8px;&quot;&gt;GPU&lt;/font&gt;" style="text;html=1;align=center;verticalAlign=middle;whiteSpace=wrap;rounded=0;" vertex="1" parent="rwMZQ3IcZu2vBEru35D5-28">
          <mxGeometry y="20" width="60" height="30" as="geometry" />
        </mxCell>
        <mxCell id="rwMZQ3IcZu2vBEru35D5-25" value="" style="shape=image;verticalLabelPosition=bottom;verticalAlign=top;imageAspect=0;aspect=fixed;image=data:image/png,iVBORw0KGgoAAAANSUhEUgAAAMgAAADICAYAAACtWK6eAAAAAXNSR0IArs4c6QAAEsdJREFUeF7tXXvQb9UYfopxy6USCaUiJaE0k0lCRehyziFFJZEolUQlikFKt6FSplIykm50T1IRTo1LiOlUJGKQpKRyG3ViPWfWb/zOz/f7vr3etdbea+/1vDPfzPfHetfleffzW3uv9V6WgUQICIGpCCwjbISAEJiOgAiip0MIzIKACKLHQwiIIHoGhIANAe0gNtykVQkCIkglhtYybQiIIDbcpFUJAiJIJYbWMm0IiCA23KRVCQIiSCWG1jJtCIggNtykVQkCIkglhtYybQiIIDbcpFUJAiJIJYbWMm0IiCA23KRVCQIiSCWG1jJtCIggNtykVQkCIkglhtYybQiIIDbcpFUJAiJIJYbWMm0IiCA23KRVCQIiSCWG1jJtCIggNtykVQkCIkglhtYybQiIIDbcpFUJAiJIJYbWMm0IiCA23KRVCQIiSCWG1jJtCIggNtykVQkCIkglhtYybQiIIDbcpFUJAiJIJYbWMm0I9JEgOwNYy7ZcaQ0QgcUA7gDwGwA/BPBAyjX2iSAfB7A3gCenBEB9DQ6B6wEcC+DsFCvrA0FIiK8BeEmKBauPahBYCGAegL/GrLh0gjwTwNXu12DtmEVKt1oEFgF4FYA/WREomSDrAPgWgFWsi5OeEABwI4CNAfzdgkapBNkIwBUAVrAsSjpCYAKBMwDsakGlRIJsCeAiAI+1LEg6QmAGBB72r+m3haJTGkF2BHBW6CLUXgg0QOAkAHs1aLdUk5IIsg+AzwAoaU6heKp9uQjcA+ApAP4TMsVSHsbDABwSMnG1FQIGBJ4P4OYQva4JsiyA060fUCELVVshAGABgItDkOiaIBcAeH3IhNVWCEQg8B4AJ4bod0WQJ7ib8a8D2CRksmorBCIReL93Q2ncTRcEeaq/HX9B41mqoRBIg0DxBFnd7RpXAXhOmvUu6eUGAJck7E9dlY/AfHdXtr5hmu8DcFyIXps7CHcM+lVxB0kl1wDY1upGkGoS6qd1BL7g3NvfZhi12B2E3xr85uC3RyrhB/6b3fHwg6k6VD+9QWBQBNkGwFcBPDoh/KcC2CP00ifh+OqqWwQGQxA6iPGeg/cdqeRj7radwVOSehEYBEEOBHB0QhvSRYC7BncPSd0I9Jog/PCnTxV9q1IJvzP4vcHvDokQ6C1BHgngS/5hTmVGBrrwpIonVhIhQAR6SRDGbzCOg/EcqeQuAK/1dx2p+lQ//UegdwRZ3oU1fgMAIwFTCdO4bObTuaTqU/0MA4FeEYQx44wdZwx5KmEcMYPtuYNIhMAkAr0hCF1Hvgtg1YQ2vA7A61InAEs4P3XVPQK9IAhdR77po7RSQXapz2WUqj/1M0wEeLf2dsPSWvPFYr4qOgmuZJjkNJXPA9g9YX/qargIFE+QLwPYKSH+RwA4OGF/6mrYCPDHdDfDElvZQXicywTBjzBMcFKFt+P7hkZ5JRi39i6e5r2q+Qawsv9/OQBMbMCDEWYi/LP//74CwSr6G4SnS4zpSCG8HT83RUfqY1YE+L3Iy1bajkfnIUKiXOmO8C/3OZJLIEzRO8hb/G15CMiTbXk7/gYPfEw/0p2OAO+mGDOxiwsoe3FCoM5xp5Z8QBnb05UUTRC++3GCVuE2/mrdjlvhm1OPxDjA+8I9ac7W9gY/cF7ah/qdxd6LTbPoV6wYgvzO3ZtsDiA4BaQNx6q06CRKb2ceeJAkbQl95Hj6+Ou2BizdF4vnzzxmC5Xfuleql/pqQKG6aj87Amu4qls8WWQW867kQwCObGnwQb5iXei/O1rCsJph6HXAg46U4cxW8C4DwBJ591s7aKg3yFcsEaSh9QOafdS1ZYRlScLX563dPdmtGSclgmQEdwhdP8qlTjoTwPaFLoZHwcxFcG2m+YkgmYAdQrckB2s28k6jZPk3gNcA+HaGSYogGUAdQpf0XmCSvK16sph/+IOZnyWerwiSGNChdHeMv+Po03ruBMCb/LsTTloESQjmULpi6DGT7/VRGBbBy+Gg4jWzLFQE6eNTkHHOrBXPU6EVM46Ru+v9XFHW4xMNIoIkAnIo3bC+3p4ZFsNb8JHnLk+e6NnLMmVMLr5e4vH+BmBN7yUc27UI0gDBx/t325QpTUfDPuSOUG8CcG+DeeRu8iJXGemnCQdZ6F01mGNsNs9clit7q6/+ReKkkFMSEV0EmcUa9DWimzzj4XPLHQB4wUk3CsbAdCEsGTYvwcA8Gj7cHb1+L7Cvx3gfLwa0pcjMT7cYZqyJERFkBvT4i3a+r3cdA65Fl06W27kb4ustyhE6Gzhy/CRCf6RKZ8IYD2z280R///KyyPl8zhMuphsRZAI9Zk35ceIEEaEGon8R4yp+FaoY0T42tPmf/radu0cqYaZ+/ljECA8bYl5fRZAJ9M8CsGOMRRLptpl1hd9YjObjK45F+B3Fo9XUN9m8rKRTIo+drfJuACdblUt3d7fGg1idFfmB+EdX8qDNaliz2e7pfj4R9m2kyg/kLzZq+f+NeN9APy2+kuYQkvY7EZk0eVDw8oiJaQcZA4+GPi8CzNSq7zDGw4TOgw83w5ItckYLtedXc7mpGONjFd7t/MWoLIKMAccPzJJqgvAk6MNGw4ao8eFZIURhrO1aLUVt8jWJUYwWIfn5VmEREWQMtTe5vL9MFFCKHALgk5knE3N61cbuMVp+zC7CGjLvNeIogowB90IAqb1BjXZZorYAAO8mcor1O49z2sInE885v/G+mQLK4nrPnM6vME5SBJkA7ucd3X9M2o+vPXx3zi2fcmGrLFkcKjw6bdtfi5XETgidqD+hs148iiATgO9QSIK5/d2F2acND0OoCgsRzQ9Vcj8iZydOCdtkCvSvst4NMS2RJX5dBJnBMie6X529m1gsUxsmRqCLSxvCiz1LUBSzitAtpm2xurE/z2HKt4NQEUGmIPYuAAwaottDW8LbaH6YH9vWgD4ZG7OVhEpwcubQAaa0Z6KGZxv64l0I70RCRQSZBTEmXt7LJwXgaU8uoQctf8npav6HXINM6Zc39kx6ECq8XGQR1baFH9ybGga1HniIIAawh6TyFQBvNCyIKUf5gd+2LAJAZ9JQ4S55RaiSXE0MiA1MxfoLSXKQJG0LT88s6U7pGcySe6FixYcng0Gvyhb/JusZvdUXKxS8IbSnERmiGir0tG07VxaJYfXMXRfALaGL1A5iQGxgKvzG+qxhTTwy5T3IYoOuVYWpRpnELlQeBsBiTMyfFSraQUIRG1h7FrlhaW2LbJmwwFGT8a3xIUxCsXaTAWZoI4IYgRuKGncB1lGxCGNn+KvehvBE8XZjzAr966wxPiJIG9YtfAz6n9EPzSIbJgrVnWtsellbKxPTC5jhtxYRQSyoDUyHLi28+LMIg5leaVEM0InNtsKLRWvRHRGkgaFypv1pMPyMTR509xe8E0hR6JIPOPNWWYUxK4xdySH0ofqRz59l6f9m473JaCwRZBbU20z7YzE+dZgFhVGQrN/BgqVW+b0LFnuGVdmnC+KtfGph1VvGu1vlg+4E6yirso55Z0auy7Q/VlvyA5aRc9bEb0c7gh1oHRxAqVlNGGjFHxGraAeZQK6EtD9WYzKrOdMFWR6ImIi98fmyHLQ1AcSoHzqIslb6JlYgvF6KUzYRZMIIpaT9sT4bzG/F+vIWOc2Ri4kiYoUPN1/5+O0QIsxgwotLurCsEqI4Q1u6xTPnL79BYkQEGUOPUWdMsNx3sWbxeFaCVJ3j2DFPFuPW6RDJhNLTZH1/T8GqxkxonULoaUyP41gRQcYQLC3tj9W49M615qn6RKZMKrytH2V3p5sKc5DxB2mdiFvuafjwe4hHu8xxFisiyBiCpaX9sRr3IAD86LbI49zt+C/dxRqT1vVVPuCD3VLMXwQZQ5Fhroy17rswxQ1T3ViFruG8AFzW2kGHenRpZ/QgHRRTiAgyhmJpaX+sBt488uKP47ImOj+0+yTMBMMahSwlkUpEkAkkS0n7YzUwH46YC7/xca3Rhta5x+jxu4M/DN+P6WQGXRFkApTSsiuG2jtFfY7xMRmmyhrkpUsu13sRZAbLd532x/owsnCN1eN12pgMNGIJAv46lypb+4vFHPMTQaag2kXaH6uB6YPFGGirS3eTcVkWOqZOR5MxQtv8y2dkYennXCKCzIIsg3RYgIWnIpaY+lxGG/XL22KeNjHz+Z25B3PhtR9xJ1uHtjBOkyFYBWwXY5x5k/5HbUSQELTUdknKHfpaMVCqK4n10A2ZtwgSgpbaLkGA9yP7AuCtO2Nl2hLextNXLLZybch8RZAQtNR2KQToN8Vba76GLpcRm2s9GRkb0raIIG0jPsDxVvKnZ3Q2fG6i9fEDnJ7JdHZkutGuRATpCvmBjrsRAKb55N3JxoFrZF5iuspzp+CpWUyEZODQU5uLIKmQVD8zIkCnR3rtcpehBy9fy/g6xrLT9O69a+zvgQIxFEEKNIqmVA4CIkg5ttBMCkRABCnQKJpSOQiIIOXYQjMpEAERpECjaErlICCClGMLzaRABESQAo2iKZWDgAhSji00kwIREEEKNIqmVA4CIkg5ttBMCkRABCnQKJpSOQiIIOXYQjMpEAERpECjaErlICCClGMLzaRABESQAo2iKZWDQNEEYYTa6QasmB3xXIPeSIX1/27yNQBvi+gnhyqLy7CoJQvlrJBjgIg+F7vaJMSLVXNj63JETGMpVaYiZUpZZnu35BqeD4DlGUKFRVGPC1GypM2xEiRkXnO1ZUkzVk2i0bsUFpc5DMD+XU4iYGxWlWWCBdYI6UK28XnCYgvxWOfeCkF2A8BsgSUI58LttgtZ3ZUjuyqi0msXcx6NmbMC7rR1neTyhO3Z5aJ9We3sO0hJBCHeTCC3sAPg+bq3bgfjphqSZSViXnlD5nFwxpLUIfNoZQcp4RVrHJTrXVIBJiVoU/hLyF/EPkvKjPOz4cDScyxgynzCXUsrBCltByHozCzY5gcoU2zyg7zvspXPVJJzHUxmd3zOAQL6Zq7kYwPam3LblkgQJrU+NWThEW156sKToSHI4ZlqH45jwxxazNdbgrRCEJ4edfVhPA1kniQxiXMbwiPd+9oYqIUx+PDumnmcCwEsyDxG0+73C93NLMe8XCwXXZIcBYDJk9sQ3nOwrNgQ5Bxf6jnnWi4BsG3OAQL6ZglqlqJuLBaCrAXg1sYjtNOwTYIsD+DedpaVfZSzXPXcnTOPcjGAeZnHaNr9Bm434x1aY7EQhJ3fYLzJbDyxwIYiSCBgvjmrB+9kU22sVcoO8gtf/73xxNnQShBe9V8UNFLexiKIDd+adpDtnHvLBaEwWQnCcY4BcEDogJnaiyA2YGshCJ9VloQIlhiCcDCeaPFcme/lXYoIYkN/6K9YPEzZBwDXaZJYgnBQZgZnsZbNIl7ZRpNf0/l5rWpYSV8IwtqFOYTZ2nl4Eiol7yD0/mameYs8DOBqAKcAuMfSwUgnBUFixp/UPRLAQYYO2yRIzDFvLrytri8lH/Pyfob3NJ1KLoNZF2UlyHX+F8M6bogeXdwtJOYYufC2EmQRgPNDFm9ou6OxwpUIMgPYVoIY7NaJSmkE6QSEhoOKICJIw0dl7mbWHWTunrtrIYKIIMmePhEkGZRLd5Rry7dOV69YNuREEBtuc2qJIHNClLRBLrxFkKRm+l9nuQxmna52EBtyIogNtzm1SiPIES26rc8JToYGufDeA8DJGebbZZcMsjqzywlw7FwGs66L/jK89Bui3O29DnKsbYcWEzDkmP9MfW7tcg1c3tZg08YpjSDMm3Rp16BkGv8aAJtn6ns9ADdm6rurblfzyR66Gn/JuKURhHOi78yKnaKSZ/B3AjgtT9dLer3FEu+QcT4xXV8LYNOYDlLplkiQAwEcnWqBhfRzu/MroiNmTtne5ek6L+cALfZNx9eusj8utcwSCcIJMhiLQVlDELpc89ewjbREJ3j37j7jRj+3Yn4gSyUIDVxKNr6Yh+1KnzXkzphOAnWZAokBQsy+0ieha/vuAC4radIlE4Q4reF/ETcsCbQGc+GJFTPgd3UKszKAvXxa1tJt/JBPXse8Zvc3wLbVJqWD1yoYGkwITCIgguiZEAKzICCC6PEQAiKIngEhYENAO4gNN2lVgoAIUomhtUwbAiKIDTdpVYKACFKJobVMGwIiiA03aVWCgAhSiaG1TBsCIogNN2lVgoAIUomhtUwbAiKIDTdpVYKACFKJobVMGwIiiA03aVWCgAhSiaG1TBsCIogNN2lVgoAIUomhtUwbAiKIDTdpVYKACFKJobVMGwIiiA03aVWCgAhSiaG1TBsCIogNN2lVgoAIUomhtUwbAiKIDTdpVYKACFKJobVMGwIiiA03aVWCgAhSiaG1TBsCIogNN2lVgoAIUomhtUwbAiKIDTdpVYKACFKJobVMGwIiiA03aVWCwH8BNlB59mJjhWoAAAAASUVORK5CYII=" vertex="1" parent="rwMZQ3IcZu2vBEru35D5-28">
          <mxGeometry x="15" width="30" height="30" as="geometry" />
        </mxCell>
        <mxCell id="rwMZQ3IcZu2vBEru35D5-27" value="" style="group" vertex="1" connectable="0" parent="rwMZQ3IcZu2vBEru35D5-28">
          <mxGeometry y="50" width="60" height="50" as="geometry" />
        </mxCell>
        <mxCell id="rwMZQ3IcZu2vBEru35D5-15" value="" style="shape=image;verticalLabelPosition=bottom;verticalAlign=top;imageAspect=0;aspect=fixed;image=data:image/png,iVBORw0KGgoAAAANSUhEUgAAAMgAAADICAYAAACtWK6eAAAAAXNSR0IArs4c6QAAHoxJREFUeF7tnQ/8/9V0x4/1Z6FiNpuy/C0l/9vEokIyKSzTqCZFZIqZNIlitaGxopVEMZOYVZaKkpqVGCFtxUjUlklM1DTKY3k/+93P7/f5fb6f9z3nvt/n/f68P5/POY/H7xGP773nnnvu+/W5955z7jl3kaDQQGigVgN3Cd2EBkID9RoIgMTXERrIaCAAEp9HaCAAEt9AaKCZBmIHaaa36LUkGgiALMlCxzSbaSAA0kxv0WtJNLDsAHmmiDxBRO4rIvcRkfWWZN21ad4uIt8TketF5LMi8gmtw6L+fRkBci8ROUpE9hWRuy3qwjrP6xYROUVEjhAR/vfS0LIB5AUicryIbLw0K+w70f8RkZeIyMd82Q6X27IAZB0ReaeIHDjcpZgrydiB31j9u2OupG4g7LIA5CMi8rwG+oku9RrgB+dVi66gZQDIkSJy+KIv5Izm93IROXFGY/cy7KID5EEi8s3qUs4RK8hfA/8rIg8UkR/6sx4Gx0UHyIcqgOw1DFUvrBR/LSKvXdTZLTJAMOdidbEQpssrReQ2S+MlaLO+iDxcRDYyzPXHlQHk1wzt5rLJIgNk/8oB+F5lVX6WLponzeXqdS80Vr9jRATA5GhnEfl09+L0P8IiA+Q0EdlTUenzReQf+lf7XI24n4i8T5H4LdXue9hczcoo7CID5CIReXJGD59LYSZGVS11s8tF5NEZDfAjw4/NwtEiA+Tf0zm6btH+RkRes3Ar2s2E3iEif5ph/a8i8nvdDD1brosMkP8QkS0z6v2L6m9vmq3652Z09ITnvI74MXrk3MymQNAASIGylrhpAGQBFz92EL9FDYD46XIwnAIgfksRAGmoy/tVDrbnisguIrKJiPx6eniE4+37VWj0d9ODmwsqi9K/NByjabcASFPNreynAeTfqhD4R/kNZ+KEhRL/y+jB228mxyYPvXAQ89jrk5Wh5nQR+W8TxymNmt5BAAXhBb9bMDDxOu+vAPRuEfl2Qb+mTQMgTTU3XIBsXsV9HZQeu92jYHqY9P8yAaagm0gpQLZL7ypKgDFNoONE5NAKZP9XJG1Z4wBImb5yrWe9gxDyglmex1pt6DMpcuIKK5MSgOAI+rCVsaHddSKyW4qBMjQvbhIAKVZZbQcNIF2aebcVkTNE5LedpkN40R9a39lbAfInIvIuJwHH2fwonSH5mL0pAOKn0VkBZJt0d93Qbyp3cvqFiPD8mod0WbIABA8qntSuiLvJ4yuBr3EeIADip9BZAIRL/8Ud5w/4IxH5x5yaNICwFcFAa9d2KXjU9FgRubkto7H+ARA/ZfYNkN+ojkEc20jF1CWxk/y+iBC3N5VyH/7DOrwfTBPmLBH5A0dtBED8lKkBxNvMS2zX4/zEz3LCJYF17MZprXIA4WL0nAIhSS6GleCq6kh2zyqM/KEi8qzCGJ0dROSSgjFzTQMgToqs2PQJEI49JU8Qvlq5G86pknJ8vbJQ8XiLh174SJ5eMH3evBxcApDHVB/3V4wDnFAdwQj8+0FNe6I8ucNgjdDo0urhzRO1Rsa/B0CMijI06xMg2rqNxOVbIavKl2rk53hGwg6LaRjLFvkLcDKuRXU7iCVNzk+TF/08g4Jpwqu9lxraAqTLDO20JpqiI5pX0+Cav/cFEMz+ZxvEKnmq8OzqLcs/GXj+VWXdeoMFIHdNrnr+W0ckDCO85HzDwKMmgPHc1C/XjTQypJNpSwGQthq0A8TLD4KfTXt4dWoy0ZbMjpxomkn32pShRd1Bdq/uDWcqo+MJzz2gqevO3YQP97cy/DlHkpSsLRGSQGxYHXW5g5AwAuvIg6sQh3XbTkTpjyUGEzk7+U0djaXtIFxwPfJj5d6cMDVClNBpE7KAj/sLd+jVNO2Ixcf/CkUC4mCammQPqZJGkypm1tQVQAjDYUsnY3yf9F8iQrZ6cxhFgXAaQApYtWqKc48dpAmRv0uLAeROs9aP8zSAYEHAklBHWKpyb7014UEpW/KsqQuAYL/HmsJ/Z0FcMrdq8eNVJ/MQAMKxnvRCP2mhWPxtW2T6r7BmTQMI6Vt2yjAhO7q2w+TmwJjkn+r66KHpsQuA8At0rDZwx38/QETe4zzGEABCyHrbXVkzPq1IPjENIF8WEWJg6oiw4ba5br/V4izptfZdAIQ8XOTjmiV5GTnG5zAEgHytiurAed2GONpzxK8jfHD44lbTNID8c+Xwe1KGSdML+jhLHlJt2mamDn27AAg8KTIzS2J8yhN40hAAwgOozVpOSrtfY+jAOpsFCJegvTOCUDylxMM+yQrz8a0tJ+rRvQuAEGCHZ3eWxK8sv7aeNASAMJ+2MYEfT4aMOt2cPOlYnDagtg2R0duSs7VOCF4jZiMoPVc2w6sLgDAcd7RZFeqZ6uxy0OdQAIIjEV9aE+KHmecVG2Q6M0++i+wOYnGq4L4HbU2IEObtlY4e79fxyOecnV0BhKnhS2KrJnyha2MEBTfxg/Cjc2GTBTH00QBCVEVdyIeB/eomOyqNeWP+jBKGY20xLHHEyhFmcuK6sgDBx4GzLkfY3LeuMhOym5SQxe3vFdUbnvSSlcm31QDi5UknMuNpithYWGvD02v6Yh7meyCxQx3x/HtFUde6M512UWcQond3LVgDonsJY9YKaHK/8SgSGQApWBylqQYQr3D3fapwjw8osvDAjrdDhIZYiRPJWtapKR25n/ADvhbVAYQSyWQg0QizGE7FG5SGvPNg4ho4PGzdI1ECINrq2f/eF0Dunj58zdFKWh++O20nwXvOsw2i0zXiWLwiqDFnFdCSP48GJFSYiymxLuMh8kyW8yLv2a2ed3wI1OP2oACIhxZX8dAA4nXEYizeZbzdKDoXdpyi/PqPE7myKH1hNZbUZvrPAeSpVUIFEr71RYRocK/xogCIlyZ1gHgdsZAYKxOO5LZe85LZEz+Hg3wFaXZlvLIvKxmpYVusIGyDVzfsP61bAMRPmX3uIEjNHYPj+6/6TaGWUzYyRAMIXC0XnLbz4HlkydsSy3gBEIuWbG00gHjuICOJOCJRJaxL4s7B3aOWLADhbQO+i7ZxMHVC7JHyp3orIgDip1ENIJ53kHGpu8rHxhifTyblrKvCAhCYkbiLksokYfAkNS9Ri8ECIC2UN9FVA0gXO8hIBF6XkvfAkzAEmYJKrQAZCff6VKxxhUOlUPoviMgLK0vDNwr7lTQPgJRoK99WA0hXO8hIKlIA/X115HpIyynx4pKc0ObnAKUAQb57p3D3Jm9CcBRy8WeyXVMAxE/DGkC63EHGZ8FuwlPvUqBgBHpbSoBdFP3RBCAjgXHf43kk+yJBZHXE/eVT6Z07pty+KADip+mhAGQ0I1JJ4WPDuFNXaQBQELbERZyoD/5/MbUByORg7Cxc6EmUQFwLBXQaFy4pnsnKDgEQByUmFkMDyOTMyPxOIpD1U0YewlGI3G1NngBpLYwzgwCIn0I1gHR9B/GbSSGnAEihwpa0eQBkARc+dhC/RQ2A+OlyMJwCIH5LEQDx0+VgOAVA/JYiAOKny8FwCoD4LUUAxE+Xg+EUAPFbigCIny4Hw6kEIPdLVVSxowetKnJJ7rLvJGVoAOnLk9772iyzmZewF15D5pLk9b4gAxyQSAh+OCi0WkcBkAEunCaStoNo/ePvdg2Eo9Cuq8G0DID0txQBkP507TZSAMRNlSqjAIiqouE1CID0tyYBkP507TZSAMRNlSqjAIiqouE1CID0tyYBkP507TZSAMRNlSqjAIiqouE1sAKEsluUfBjPCjm82fQv0e+kuuGkjdUo/CCahgb4dwtASgrSD3CKvYh0UvUy9KXKSAGQXpbCdxANIIRRUL8jKK8BUoFSPnmTTLM4Ys3hV6QBhMwqpB4K0jVAcR4qg9VRAETX4eBaaADpssLU4JTRUqA3i8jrMjziiNVSwbPoHgDx0zq1Dw+LHcRPoUPgFADxW4UAiJ8uB8MpAOK3FAGQFrqkrgcZ7ih4QtI4/vHOgsRxPLqheg+ZFfumAIifxqmhQV7mOprVHYTvjncqJI6jQCf1RCjPxj8KzVIVFwNCY2r6YAphDkmWjQcYR6cw5/smy+wa+zZpFgBporXpfYYEEFLd7ldQQJZqVR+t6mMek4BTpJVSgNwzZccmgXCuIHtOiP9MCYhXFEwsklxvHADRdWRtMQSA7JUSUG9qFXqiHUmrqX3IP3Oe3hKAbCkilIfOOYxKZAfVLxGRm0s6FbQNgBQoS2k6S4BQ8fbkaSWaG06PHYX6m9dZ+lsBQgbtT4vIPSxMC9oQ/7SjiBSlpDfyD4AYFWVoNqtLOsnQLxWRrQwyljT5XlU17SkiwjeSJQtAuARdWAX0tS2aUycIxXR2Ktn2tEmlvwdAjIoyNJvFDkJ5DepjPsIgX5MmP66MR9uJSLYkhwYQ6hJSy22jJhIU9KHONVGjdxT00ZoGQDQN2f/e9w6yXgIHdUC6JCyt2+TKdOQAwvbGR0bdjz7IO/QjAOK3an3vIO8WkQP8xM9y4jt5aF2LHECOFpE/LxTyVhG5SkSwdm1R2Jfm9xcRrFweFADx0OIqHn0ChPvuZQ1Ev1pEODY9XETuWtifcoLHT+tTBxCq9dxQMAg25o9MTAwz8C7pLQEOHQt5RtgGQCwat7XRAOIZzXtBsjJZJONojm/t/OScHvWh6Cdm4VdamKRvnacPVEZbi+oAQsHD1xiYX1Jdcp5XbYdYBXJEPTkAZLnLeO0iARDDAhqbaADx8qRbdw/Kq1FCHONRjkgpe0amjuF434OmlZuuA8j1KXQkN/i5SvHOyb5bV4UXv1g5e+6uTOrwtKUb1662WQCkrQbX9O8LIMdWx6RXKWJTf3DbsbzB2iw5ybDD7KA0xJz8RMsOguWA+Kkc4WwhBqvUf/GsVHk0x/saa5F3RUaOa5tl2ngbBSaHwqH64Ars62or2PLvJJpGZ9ou3mYYDSC8OHxxmwFSX/IDEMaUo+2rI9hnC8fC4MTd+D5KP9ZsravFtB1EM+kxxs7JcVgo553NzxSR3Zt0dO7TFUBYjA+lAE5nkbPs2NH/OF1UvcfVAOI9Xh2/E0WEWulNaG8ROVXpuH/1o3rKeJtpAOGX9wUZRpR2JnK3KVFbves4LItsXQCE3QILzKMtAnTQhp2fY4KnPwkxLT+aHUxnBUsu3xzTmxCRvj9JEb91/d8y+TBsGkAouo71qY7aWpq4qHcVf1WiuC4A8qLJX6ASgZza7lGZOk934jViM4QdhG+mbagTzy44/dTRB0RkX20H4RcQa0Id4R85tOUCsAt5BT02FaULgJzQ4gjQdB6T/TC5H+zFLPEZwg6Cn+MhLeeFr+PADI+LUtjT6ibTdhAuQE/IMMEEXOpAnGTHpe6BLSfbtnsXACHP1qvbCtayv8f6TIowhB0EQ8TmDrrJuS9MANFSvHDRyd1RLHPAIdP0PYmFv6VNFwDZTUTOtgzeYRtCuTX/QOnwQwAIbzg2LBV8ov1pIrJnhscHqxxg+2hHrOOql1e43usIc2LTRyvwxB5NlOasqQuAMCdKu3GZnAXxXocwbm8awhGLORFZTvR3E+K0xFNcooTraMX1YdoR62UigjktR0+rjmGEBDQhLkJrobQJE4c+XQGEODR4c9nb2EFOC4ubkhf4rR08G2D8IewgyNHGzPvMKnKX0JQc8V2yi6ymaQDBPa+9tuJXskkoMt50HDY5uja9ObZ8GLk2s3YUIhs6wrzYJREg2tT0aZVLA4iXo5Dju+ZC4O7KN1JKV1Q+uEcqnUg4QhhLFiD8keAzoiJzhNIIC7ES58cvGywRR4nIEVammXYRauKgxMRCO2J5BSvyXlyzwF2efnh+XjA97doAK3xIK4xTdbFYfKAcEzSygoS0LFxeLQ40wjP4RWpLAZC2GlzTX9tBvIIV+YXnl14jPmaiMW7UGlZpqP5WRAhE1IhEJABpLaoDCM48PlIezGsEogHUOVMaElfDnQazsBakSPcPpzBlbUzL3wMgFi3Z2vQFEKTRHNUjiTkK4fkmNIQ72CThMOU0QrIRjcihxdViBeUeTFku6+MMeawyjn4AkXM4TpMHOzf2bg8KgHhocRWPPgHCKYMf3RLiTjw6cvFNU/zH8oM8GoMnG2TZKQIIjTWnYckktLbW45rGZ/T3AIhVU3q7PgGCNH1GJLBj7VqnAi1pA+/R2RW6DgvheEYovGeQXQBE//CtLfq6pI/kWSf5ynIRHVbZc+2+mXab2mcbGkBgzpbHy8G2Xsw6QdkeSfuDudKTAiB+2ux7B0Fyng1wgqlNqNByejgNcTzytqmWLAChMyZfrFDWPLxW2fGKEhpR+vDKwj8AYtGSrU3fO8hIKk4wF3eQOA5fHMcqzd8nVoCMEM2LLz5oD+JREYaALsCBfAEQj1VaxWMWO8g4SP6ucoaS18CDsJSS8taUn7cEICPhEBTzmuaVrJsM5mNivbgcdUkBED/tzhIgo1nwWpJIZe3ZbN2sOa5RkYAjvZmaAGTEnC0K8xgxLsQf5YjoXQBBQjBy/PZBARA/LQ8BIKPZUP6AstTEA2pEYO1ZKaNOowDZNgAZF46H9KQpxQvOf29PBXTIjsIFnyjTvikA4qdxDSBYOi1REn4SrUoO96SUXxcrK7ncfqWqWXOliPC4Cu9+6xg1L4B4TtyLVwDES5P6m3SvWCw/iZ04BUCcFLngbGZlxZq5WgMgM1+CuRAgADIXy1QmpHbEOrLy3L+xjOXStn5zFev0uszsvaJ5B6fgZd5BeHtPftcgXQMUYKV+Sx3FHUTX4eBaaDsIoQa8TrtlcJIPSyBM+N9RTPmxgwxrzUzSaACByXuTTd3EcEkbUV6Asss5CoDM4cdhAQjTopAoL8lIh0pqyqBVmT+eU+njz5JfS9NJHLE0DQ3w71aADFD0uRMpADJ3S6YHK87hlAYrcgBksEtTL1jsIP0tWgCkP127jRQAcVOlyigAoqpoeA0CIP2tSQCkP127jRQAcVOlyigAoqpoeA0CIP2tSQCkP127jaQBhPfwP6vequzoNuJiMvp8ypc7NbFamnI4Cudw7TWAjGd3Z/FJj7r+HM6zC5Fvq6rWkm2Qf5D2YCoA0sUqdMyzBCAdizL37CPcfe6XcOUEAiB+ixoA8dPlYDgFQPyWIgDip8vBcAqA+C1FAMRPl4PhFADxW4oAiJ8uB8MpAOK3FAEQP10OhlMAxG8pAiAOuqQaFUUQ+YcD7vtVDtTvOvBtyiIA0lRzK/sN3Q+CD4tqZhRM5Sn16F9rDbRJ2sCrM9KOkgqS2h51dGmV/e5T6cUeDqW+KADip+mhAYTKZXx7O2eqLZPu9ryqMsHpqTzgzU3U0QQg7BRvEpEDGwx4Wap1/f4GfUu7BEBKNVbffigA2T8V5HxU4dQ40fCsmqTrlAo0UylADhWRNxTWf5smDOWgX2iomW6eyJSGAZA22lu7rwaQroMVqTlI3futW04JcFBQlmQdJioByHtSXQUTY2OjvVJlW2PzomYBkCJ1ZRtrAOkyFqu0mKxl1uwkh1kaWgFCkrXnWhg2aFNbYbQBr/EuAZCWChzrPiuAUObgJL9prMXJlPLJAhCqSnWdgXCXdKHy1EUAxE+bswDIniJymt8UpnI6PhVzqh1GA8iJqUxax3LeWYaNcyZVR70oAOKlyf7LH2CloiIUZtuuiXv10XWD5ABCBZ/zu5ZujP/XHS5hccTqZsH63EE2EJFrRGTTbqYylesjUuGdFX/MAeRL6VfdIufl6bL9mWSZIp8r5Xvxj+ydnIcWPli2sFZ4UOwgHlpcxaNPgLxWRN5qFP0HIkIx2HOqcoD8wGKloiLzk6vTCAYgax3NM5M/zwyQZyfHnibnjckfgjOmjjZKZQYO1piJyLUpobShqdokAKKqyNygL4BsnL4BnNAaYYlCrlszDQHJCYYamrDYRkT4oV+L6naQCwzlnrkvUCOOQokWer7RpIuHlF+EthQAaavBNf01gHj5QV5cPX0+2SB2yTfygFQnk3CUHDEu5aFVgIDeHynMSPLMRepbhsmMN6EIC8VYcnSGk0k5AFK4OJnmGkC8/CBUQN5JEZsIjncVTo0Coyt2hwkefPPEEaoAsaAY+7TZGzkxpuVu06hk78Q421bWCSqh1tF40oZCfavNt0uRAlT9XVdt3a7BL9KllvCdohrgBcNqAPmpiLCubUnLMHORAUC59T5CEZC7C/fo1TTtiEUt8wMyjNg9tLroOTkoCP/Btpp06N8VQCw/MA7iT2WBbrm0epMGEO/x6vi18Zfxzd6kCIp3nbtNFiAccagNUUdtS5dRz/qGvjSaGacLgGBB4Tw+KyKCFRm+7SzAUACi+e20abPDPi7TCL/fyzWAEJ7OEaGO3pYCvjRhcn8nXv9ebRg49O0CIEP4kFb8CjroSnsw5TCEyoIycA9SW+UbnCIiL8o0Obc6Ku6mAeSLIvLYDBMu2a9vKSgWsC1a8mjbvQuAaMfTtjJb+nOBbfIUIcd7CMDH6IJvrQ1xfMJzXkeXiMgOGkA+nh6j1DGZag4rlJqzYJt7TOFwU5t3ARB+nfiVmiV1cQ8ZAkCmWpkKFa3VW/xo5XAkeHY1NbmktzXpbV55168unFgXzbsACLFD7I65PLZdzGXE8xsiQtjE7c6DDOGIxZSoSowzuSnx3fH91dE7Ul3GLEAsrn62Ora8JnSkiBzepKNzny4Agoh4ZDG5WsMcvKZFcB/Wx695MRzjM4QdBHE42mt+tLrpW3whrxARInyzAHlMqvya0zNhyMRYlRIXcxIi3y3TETMySG5LBykxYF0BZCQ3jlScXjlfTNs50p9QC4JKr/BgVsNDA8gPU0hHWxGoqku4SR0xDrsI0d+ldJaSOwF+W4kIu3AWIPyRIDDentfRHSKya2Uy+2SBlBznKLWcS/AAO14u5vww1iHDk27VlN5OO2J5RWJrdwQk5X0SYUsltEcVKc79IkdT4wDr7MqWdyB4T3cXEeK2LGR9souJmZoUbSkA0laDa/prOwjHuoc5DPcUEbnQwOcYEbEEv8KKrDu5YNrRcG8XkUMmx64DCNuY1dnEcQgF4tuYRpjNmBAPojTCxJxz5Gj9x/8eACnRVr5tXwBBCoxAGBo0ujiBpC7EZRMROao60hPZYCHen6wIvM15JkGUFaUIcLaIIDS/JgQ84tHlOFWSiWJFLIxlZjVtAiAtlDfRtU+A8M1wX7ASQYij9yDkvgJc3P2eamWQgDQ1TisHEC5LnC37etmF/4V3KF4UAPHSpP5gyusOMpKYH9rt/cTPcrou/YhPfVeixbZg0eI+0PXbYOzTWH0aZb+LHaTzT6mvS/poIveunNXkTtus45kRu0bU95V142gAoR/m3FM7FBTTHfcO653HKkrsIFZN6e20I5b3DoJEHJXw7eTMvrrk+RaksiI4t5YsABmBBBOcd5FLzMlc4ps6HXNzC4C0/XzW9O97BxmNjNOVt0Eb+k3lTk4/T2/WeYueJStAYPL4ykvMPYHtz4PIXMHTSX59uqAAiJ9WZ7GDjKTnCIT/DKuUB1FxgIjdr1qYlQAEflinCEV5ZQsP8f8nsy/hJiQV7ooCIH6andUOMpoBiT+OLTDZTps53x2+OL5f8123FCCjgbFsERaAh/L+xnWgXgjHNFJJYjnomgIgfhrWdhAvR6Em8ZYpu/s+hXcTwthxAn5BG2Dy700BMs4HB+AzkieVN9h4VIkmBRDXJ98I9UE+Vypcy/YBkJYKHOs+FICMzwhfB/VBiLzgB5sCOuukvGwkE7kqWWD57hqfVDwA4rcMvpwCIH76nPURy28mhZwCIIUKW9LmAZAFXPjYQfwWNQDip8vBcAqA+C1FAMRPl4PhhJ07V8tuxfPKwUg+PEF4ZZdLBPEVY7T28GamSLTIdxAecz09M39Mfjg/g3QNEBeFV7uOiOTWHsLpowywxSIDhOwr2lsAaqBYH3wNcPl6EYlshp9QRuoi1VAvk9MGWWSAkPpeS8NJ2AGZ9AihCVqpARzB7zSEefBqT41rmkcFLzJACE+whhTQDsfSbfO4iB3IzPMGHrxZggR5R0FW9MbOuA7kd2O5yABBSaTf2ddNW8FomgYoUEMGmYWkRQcICdyIGu66BMFCfhyGSbFrkL9gCMnIDeKWN1l0gKAR8l9pdSHKNRc90MCrU5TtwmpjGQDC4pH2hYtkkJ8GvPKX+UnUAadlAQhHLByD3lnPO1iSuWBJlnTSgJJAcKFpWQAyWsT9qrokxxmtMwu98A0nR+4zCl1+rGH/ueu2bABhgUipenSVg3XPFq8i526hWwp8S7II8grUajpvOeQwui8jQEaa36B6YYaXmHCT+4oIpeHWG8ayzFwKHryRZXD04O28mUs0IwGWGSAzUnkMO08aCIDM02qFrL1rIADSu8pjwHnSQABknlYrZO1dAwGQ3lUeA86TBgIg87RaIWvvGgiA9K7yGHCeNBAAmafVCll718AvAc2JtxQvmPpqAAAAAElFTkSuQmCC" vertex="1" parent="rwMZQ3IcZu2vBEru35D5-27">
          <mxGeometry x="15" width="30" height="30" as="geometry" />
        </mxCell>
        <mxCell id="rwMZQ3IcZu2vBEru35D5-26" value="&lt;font style=&quot;font-size: 8px;&quot;&gt;SRAM&lt;/font&gt;" style="text;html=1;align=center;verticalAlign=middle;whiteSpace=wrap;rounded=0;" vertex="1" parent="rwMZQ3IcZu2vBEru35D5-27">
          <mxGeometry y="20" width="60" height="30" as="geometry" />
        </mxCell>
        <mxCell id="rwMZQ3IcZu2vBEru35D5-30" value="" style="endArrow=classic;html=1;rounded=0;exitX=1;exitY=0.5;exitDx=0;exitDy=0;entryX=0.225;entryY=0.167;entryDx=0;entryDy=0;entryPerimeter=0;" edge="1" parent="1" source="rwMZQ3IcZu2vBEru35D5-6" target="rwMZQ3IcZu2vBEru35D5-24">
          <mxGeometry width="50" height="50" relative="1" as="geometry">
            <mxPoint x="350" y="440" as="sourcePoint" />
            <mxPoint x="400" y="390" as="targetPoint" />
          </mxGeometry>
        </mxCell>
        <mxCell id="rwMZQ3IcZu2vBEru35D5-32" value="" style="endArrow=classic;html=1;rounded=0;exitX=1;exitY=0.5;exitDx=0;exitDy=0;entryX=0.25;entryY=0;entryDx=0;entryDy=0;" edge="1" parent="1" source="rwMZQ3IcZu2vBEru35D5-6" target="rwMZQ3IcZu2vBEru35D5-26">
          <mxGeometry width="50" height="50" relative="1" as="geometry">
            <mxPoint x="310" y="440" as="sourcePoint" />
            <mxPoint x="360" y="390" as="targetPoint" />
            <Array as="points">
              <mxPoint x="290" y="355" />
              <mxPoint x="290" y="400" />
            </Array>
          </mxGeometry>
        </mxCell>
        <mxCell id="rwMZQ3IcZu2vBEru35D5-35" value="" style="endArrow=classic;html=1;rounded=0;entryX=0.225;entryY=0.333;entryDx=0;entryDy=0;entryPerimeter=0;exitX=1;exitY=0.5;exitDx=0;exitDy=0;" edge="1" parent="1" source="rwMZQ3IcZu2vBEru35D5-6" target="rwMZQ3IcZu2vBEru35D5-23">
          <mxGeometry width="50" height="50" relative="1" as="geometry">
            <mxPoint x="320" y="440" as="sourcePoint" />
            <mxPoint x="370" y="390" as="targetPoint" />
            <Array as="points">
              <mxPoint x="290" y="355" />
              <mxPoint x="290" y="310" />
            </Array>
          </mxGeometry>
        </mxCell>
        <mxCell id="rwMZQ3IcZu2vBEru35D5-36" value="&lt;font style=&quot;font-size: 8px;&quot;&gt;Voltage&lt;/font&gt;" style="text;html=1;align=center;verticalAlign=middle;whiteSpace=wrap;rounded=0;" vertex="1" parent="1">
          <mxGeometry x="300" y="290" width="40" height="20" as="geometry" />
        </mxCell>
        <mxCell id="rwMZQ3IcZu2vBEru35D5-38" value="&lt;font style=&quot;font-size: 8px;&quot;&gt;Number&lt;/font&gt;" style="text;html=1;align=center;verticalAlign=middle;whiteSpace=wrap;rounded=0;" vertex="1" parent="1">
          <mxGeometry x="300" y="334.5" width="40" height="20" as="geometry" />
        </mxCell>
        <mxCell id="rwMZQ3IcZu2vBEru35D5-39" value="&lt;font style=&quot;font-size: 8px;&quot;&gt;Address&lt;/font&gt;" style="text;html=1;align=center;verticalAlign=middle;whiteSpace=wrap;rounded=0;" vertex="1" parent="1">
          <mxGeometry x="300" y="379.5" width="40" height="20" as="geometry" />
        </mxCell>
        <mxCell id="rwMZQ3IcZu2vBEru35D5-40" value="" style="shape=image;verticalLabelPosition=bottom;verticalAlign=top;imageAspect=0;aspect=fixed;image=data:image/png,iVBORw0KGgoAAAANSUhEUgAAAMgAAADICAYAAACtWK6eAAAAAXNSR0IArs4c6QAADm1JREFUeF7tnXusHFUdx3+/2TtzWxCaVpruLgVJKffOFlEqjyiixSi0oKImJGiUl0ET1EJULK9iVCixIkp4GCOB0IgGxQRIpC0QSIupgIRnjDvb8hCBnXsp1LQidGf2zs9soUTSdufsdGbnnJnv/Xd+5/f4nu/nTrd39gwTfqAAFNijAgxtoAAU2LMCAATugAJ9FAAgsAcUACDwABRIpgDuIMl0w6qSKABASrLRGDOZAgAkmW5YVRIFAEhJNhpjJlMAgCTTDatKogAAKclGY8xkCgCQZLphVUkU0BqQejh2fCTWfGaey5GMlGRPSjGmWNwVkZctlk1tu7VB16G1A6QuYy4F1kpiPlVX0dBX2grIdhFa3XX44s3c3JR29r3JpxUgtY67gpkv3ZuBsNZsBYSj5b7dWqHLFNoAUu+4d+OuoYst8u1DiG7zneYZ+XbxdnUtAKkH7i1EfI4OgqAHPRQQkav8Ue+yvLvJHZBqd+xkK6qszlsI1NdPASE52ne8x/PsLHdAaoH7DBMfkacIqK2nAkJyv+94J+XZXa6A1ILGR5go198QeYqP2vEKsC0HvMLe6/GR2UTkCkg1bFxuCf0km9GQtSAKnNt2mjfnNUuugNQC9zYm/mpew6Ou/gpEJNdPON75eXWaLyAddy0zL+43vBD9xXean8xLINTNToF64G4g4uP6VhC5pz3qfS67LvpnzheQwF3HxIv6tyir2o53dl4CoW52CtQD91YiPqv/L0hZ7zveCdl1AUDy0hZ1YxQAIDEC1XAHKTVEAASAlBqAuOEBCACJ80iprwMQAFJqAOKGByAAJM4jpb4OQABIqQGIGx6AAJA4j5T6OgABIKUGIG54AAJA4jxS6usABICUGoC44QEIAInzSKmvAxAAUmoA4oYHIAAkziOlvg5AAEipAYgbHoAAkDiPlPo6AAEgSgBUg7FjLWb7jZFKcxv/Y4vSogIEARAA0leBerBgIVF0IxF/bGdg76gbsqcu8HlTswAMxMyPbxT2FajMX5jacdcgax0RT99FJBF/ygmPnOTnXi0yJLiD4A6yWwXeL2MHOmHlcSaasyeJhOT3vuMV+sQXAAJAdlVAFjj1UB4hooX95ZGtbdubRUxRUe8iAASA7KJAPWjcTkSnq5h+ux3O2MLPblOJNTEGgACQ9yhQDxsXkdBPVcwsJNt8x5uhEmtqDAABIO8qUAvHl5DwaiZWO4tMoivao60fmmp+lb4BCADZoUBNDmtQWHmUifdTMY4INdnZenSb22+qxJsaA0AACM2S+fuPBiNPMvM8NSPL1ilbFk5y6wW1eHOjAEjZARGy6mHjPiL6tIqNhSSKWE6ctFsPqsSbHgNASg5INXCvs4iXqhpZiL7rO81rVeNNjwMgJQakGjTOtIhWqZu4fId0A5CSAlINxo6xqLKBiGwVQITob77d/DgxdVXiixIDQEoIyCyZP3c0HHmCiWcrGVnEJyf6UJs3vqYUX6AgAFI2QOSQabVw2mNM/EE1H0snpKmPbnY2PaUWX6woAFIyQGqdxp3M9EVVG0cSnT4x2vqjanzR4gBIiQAZ+IWkIj9vj3o/KJrpB5kHgJQEkHp3/AsS8Z3Kj5EQPdC2mycSkwxiqKLFApASAFLtLDjc4uix3X7xaTfzi8jzHae7sMhP6aqCDEAKDsgMOXjmvsG+TxPTQSqmEKI3QluOeo29jSrxRY8BIEUGRMiqhY31THS8ipGFRIjlFN9urVWJL0MMACkwIPWg8SsiOk/ZyCyXtG1P6bsgyjkNDwQgBQWkFrjfYOLfDODPP7Sd5pcHiC9FKAApICDV0F1kCa8zxcFCspmEHop46upJZ9OjOvUNQAoGSF0OPYhC52kimqmT0VR7EZJv+o53k2p81nEApGCA1DruHcx8WtbGyS6/vLXd7o5t4Wdfzq6GemYAUiBA6jJ2AIWVzerbr2ekcLTct1srdOgOgBQIkGp37GQrqqzWwVh704MQ3eY7zTP2JkdaawFIgQCphWOfYKk8lJY58sojJNf5jndBXvX/vy4AKRAgvVFqQWOi33GhOpgutgeWxW3b631PPvcfAFIwQOrd8VMpsu7O3VnJG3ik7TTfPUk+eZp0VgKQggHSG6cejH+diHuvLJiWjk2GlUVeF5uP8rn54rAqxtUBIAUEpDdS76wrJ6gsJosbVkRWnBHSv87TiWnZIHmFaZFvN7X6DAVACgrIIMbMInbQby4SydK2492QRS97kxOAAJC98c9u19ZC91IWHuDvGPoeJwRAAEiqgAx6ALbuxwkBEACSGiAHiDtmh9x7K9X7lJIacJwQAAEgSl6OC0pwALYRxwkBEAAS5/3460JcDxv3qx6A3UtoynFCAASAxAMQq1HjWiYa4NEQuabteBfudeEhJAAgsZvvrmPiRf3D9P1fmKw9NPgB2GYdJwRAAEhihgY+ANvA44QACABJBMhsWVAdCaNnVA/ANvU4IQACQAYHRPk96m+nNvk4IQACQAYGZJD3qO8AhOly325eOXAhDRYAEAAykA0HeY/6DjiE7vJHm18aqIhGwQAEgCjb8Z3HSO5hYqWng4Xk7769/Rjif25XLqJZIAABIEqWHPgxEqIt2+3ww7qcTqI05G6CAAgAifXOoI+RCMkUsyxq263eOxCN/gEgACTWwLWOu4aZl8QGvhMQEX1nwmneqBqvcxwAASB9FRj8O+7FeqoAgACQ/oAE7oNE/CnF3/JaHbig2HPc/LcS8Vn9goRkve94J6RRL0kOTrIorTW1oNzPYtU7jX8pvXzHgO92JPEE7iC4g/RVoNZxn2PmeXHmEqKjfKf5RFycadcBCACJ+SdGo/dh+1v9gkz5bkcSOAEIAOmrwCyZP3daaPdepzBrt4FCP2uPNi9KYj4T1gAQABLr096ZvxRVfstMH3hPMMuP2rb349gEBgcAEACibN85XffzLDQuTN5URda/xq3/KC82NBCAABBDrTuctgEIABmO0wytAkAAiKHWHU7bAASADMdphlYBIADEUOsOp20AAkCG4zRDqwAQAGKodYfTNgABIMNxmqFVAAgAMdS6w2kbgACQ4TjN0CoABIAYat3htA1AAMhwnGZoFQACQAy17nDaBiAAZDhOM7QKAAEghlp3OG0DEAAyHKcZWgWAABBDrTuctgEIABmO0wytAkAAiKHWHU7bAASADMdphlYBIADEUOsOp20AAkCG4zRDqwAQAGKodYfTNgABIMNxmqFVAAgAMdS6w2kbgACQ4TjN0CoAxABAqsHYsUyVa5joeEN9llHb8lchXprlaxcAiOaAVLvjp1mRdUdGDitE2siaOmViZOOaLIYBIBoDMkMOnrlvuM8LRDwji80vSk4hmvSdZjWLeQCIxoBUg8aZFtGqLDa+cDlZFrdt77605wIgGgNSCxvLWeiKtDe9iPmE5fu+7f0i7dkAiMaAVIPGty2iG9Le9CLmE4rO853Wr9OeDYDoDIi4h1ghv5D2phcxX8eemvs6b3wl7dkAiMaA9FqrddyrmPmStDe+UPmYLm7bzZVZzARANAdkBySBu4qJz8zCAKbnjEiun3C887OaA4AYAEivxd5/+U4Ppn/GIj48KzMYk9cimWJ6olLZ9kCb229m2TcAMQSQLE2A3HtWAIAAEPDRRwEAAkAACABJ7oFa4K5j4kX9M8iqtuOdnbwKVuqqAO4guIPo6k0t+gIgAEQLI+raBAABILp6U4u+AAgA0cKIujYBQACIrt7Uoi8AAkC0MKKuTQAQAKKrN7XoC4AAEC2MqGsTAMQAQHCqyZ42Caea9JThPH+75P2XdJxqEr/7ONUkXqPMIvIEBKeaqG0rTjVR0ymTqDwBwakm6lsqLEt827tXfYVaJD6DaPwZpBaOX8ZiXam2leWOijhaNmG3rk5bBQCiMSDVwD3LIr417U0vYj6R6Gv+aOt3ac8GQDQGZKbMmzEtdF5i4v3S3vgi5et9BonsLYdO8uR/054LgGgMSK+1OZ3G6RWm29Pe+CLlE45O9u3W2ixmAiCaA9JrrxqMn2ORtZSIFmZhAnNzyobIkmsnRlp/ymoGAGIAIDtbrMr82dQdwakmRNIZCZ76Nz+/NSswduYFIAYBkrUZkH9XBQAIAAEXfRQAIAAEgACQ5B7I8y/pybvGyrQUwB0Ed5C0vFTIPAAEgBTS2GkNBUAASFpeKmQeAAJACmnstIYCIAAkLS8VMg8AASCFNHZaQwEQAJKWlwqZB4AAkEIaO62hAAgASctLhcwDQABIIY2d1lAABICk5aVC5gEgAKSQxk5rKAACQNLyUiHzABAAUkhjpzUUAAEgaXmpkHkACAAppLHTGgqAxAHScdcy8+J+YSK0xh9tnpLWpiCPHgrUpb6PhPvfxcQn9t9/udcf9Zbk1XWup7vXA/cWIj4nbngR8YhpMi4O181RgIWqxDwe17EQ3ew7zXPj4rK6ni8gYWMZCa3MajjkNV8BIfqe7zR/mdckuQIyp+MeUWF+Jq/hUVd/BcSmQ3xuvphXp7kC0hu6HjSeJKIj8xIAdXVWQB5uO95xeXaYOyC1cHwJi7UmTxFQW08FuizHvWp7D+fZXe6A9IavBeM3MVm5fRDLcwNQe08KyDVtx7swb320AGTHP7U67p+J+bN5C4L6Oiggt7cd7ys6dKINIG9D0lhJTMt0EAY95KOAcLTct1sr8qm+a1WtAOm1Nzs47MgRqaxk5pN0EQl9ZK2AvCVC93QdvnQzNzdlXW2Q/NoBsrP5uTJ3+lR3v2NEokOZrQM5kpFBBkOs3gqIxV0ReSli2pj3B/F+SmkLiN7bi+7KogAAKctOY85ECgCQRLJhUVkUACBl2WnMmUgBAJJINiwqiwIApCw7jTkTKQBAEsmGRWVRAICUZacxZyIFAEgi2bCoLAoAkLLsNOZMpAAASSQbFpVFAQBSlp3GnIkU+B8naB9u1NNLrAAAAABJRU5ErkJggg==" vertex="1" parent="1">
          <mxGeometry x="440" y="291" width="30" height="30" as="geometry" />
        </mxCell>
        <mxCell id="rwMZQ3IcZu2vBEru35D5-41" value="" style="shape=image;verticalLabelPosition=bottom;verticalAlign=top;imageAspect=0;aspect=fixed;image=data:image/png,iVBORw0KGgoAAAANSUhEUgAAAMgAAADICAYAAACtWK6eAAAAAXNSR0IArs4c6QAADm1JREFUeF7tnXusHFUdx3+/2TtzWxCaVpruLgVJKffOFlEqjyiixSi0oKImJGiUl0ET1EJULK9iVCixIkp4GCOB0IgGxQRIpC0QSIupgIRnjDvb8hCBnXsp1LQidGf2zs9soUTSdufsdGbnnJnv/Xd+5/f4nu/nTrd39gwTfqAAFNijAgxtoAAU2LMCAATugAJ9FAAgsAcUACDwABRIpgDuIMl0w6qSKABASrLRGDOZAgAkmW5YVRIFAEhJNhpjJlMAgCTTDatKogAAKclGY8xkCgCQZLphVUkU0BqQejh2fCTWfGaey5GMlGRPSjGmWNwVkZctlk1tu7VB16G1A6QuYy4F1kpiPlVX0dBX2grIdhFa3XX44s3c3JR29r3JpxUgtY67gpkv3ZuBsNZsBYSj5b7dWqHLFNoAUu+4d+OuoYst8u1DiG7zneYZ+XbxdnUtAKkH7i1EfI4OgqAHPRQQkav8Ue+yvLvJHZBqd+xkK6qszlsI1NdPASE52ne8x/PsLHdAaoH7DBMfkacIqK2nAkJyv+94J+XZXa6A1ILGR5go198QeYqP2vEKsC0HvMLe6/GR2UTkCkg1bFxuCf0km9GQtSAKnNt2mjfnNUuugNQC9zYm/mpew6Ou/gpEJNdPON75eXWaLyAddy0zL+43vBD9xXean8xLINTNToF64G4g4uP6VhC5pz3qfS67LvpnzheQwF3HxIv6tyir2o53dl4CoW52CtQD91YiPqv/L0hZ7zveCdl1AUDy0hZ1YxQAIDEC1XAHKTVEAASAlBqAuOEBCACJ80iprwMQAFJqAOKGByAAJM4jpb4OQABIqQGIGx6AAJA4j5T6OgABIKUGIG54AAJA4jxS6usABICUGoC44QEIAInzSKmvAxAAUmoA4oYHIAAkziOlvg5AAEipAYgbHoAAkDiPlPo6AAEgSgBUg7FjLWb7jZFKcxv/Y4vSogIEARAA0leBerBgIVF0IxF/bGdg76gbsqcu8HlTswAMxMyPbxT2FajMX5jacdcgax0RT99FJBF/ygmPnOTnXi0yJLiD4A6yWwXeL2MHOmHlcSaasyeJhOT3vuMV+sQXAAJAdlVAFjj1UB4hooX95ZGtbdubRUxRUe8iAASA7KJAPWjcTkSnq5h+ux3O2MLPblOJNTEGgACQ9yhQDxsXkdBPVcwsJNt8x5uhEmtqDAABIO8qUAvHl5DwaiZWO4tMoivao60fmmp+lb4BCADZoUBNDmtQWHmUifdTMY4INdnZenSb22+qxJsaA0AACM2S+fuPBiNPMvM8NSPL1ilbFk5y6wW1eHOjAEjZARGy6mHjPiL6tIqNhSSKWE6ctFsPqsSbHgNASg5INXCvs4iXqhpZiL7rO81rVeNNjwMgJQakGjTOtIhWqZu4fId0A5CSAlINxo6xqLKBiGwVQITob77d/DgxdVXiixIDQEoIyCyZP3c0HHmCiWcrGVnEJyf6UJs3vqYUX6AgAFI2QOSQabVw2mNM/EE1H0snpKmPbnY2PaUWX6woAFIyQGqdxp3M9EVVG0cSnT4x2vqjanzR4gBIiQAZ+IWkIj9vj3o/KJrpB5kHgJQEkHp3/AsS8Z3Kj5EQPdC2mycSkwxiqKLFApASAFLtLDjc4uix3X7xaTfzi8jzHae7sMhP6aqCDEAKDsgMOXjmvsG+TxPTQSqmEKI3QluOeo29jSrxRY8BIEUGRMiqhY31THS8ipGFRIjlFN9urVWJL0MMACkwIPWg8SsiOk/ZyCyXtG1P6bsgyjkNDwQgBQWkFrjfYOLfDODPP7Sd5pcHiC9FKAApICDV0F1kCa8zxcFCspmEHop46upJZ9OjOvUNQAoGSF0OPYhC52kimqmT0VR7EZJv+o53k2p81nEApGCA1DruHcx8WtbGyS6/vLXd7o5t4Wdfzq6GemYAUiBA6jJ2AIWVzerbr2ekcLTct1srdOgOgBQIkGp37GQrqqzWwVh704MQ3eY7zTP2JkdaawFIgQCphWOfYKk8lJY58sojJNf5jndBXvX/vy4AKRAgvVFqQWOi33GhOpgutgeWxW3b631PPvcfAFIwQOrd8VMpsu7O3VnJG3ik7TTfPUk+eZp0VgKQggHSG6cejH+diHuvLJiWjk2GlUVeF5uP8rn54rAqxtUBIAUEpDdS76wrJ6gsJosbVkRWnBHSv87TiWnZIHmFaZFvN7X6DAVACgrIIMbMInbQby4SydK2492QRS97kxOAAJC98c9u19ZC91IWHuDvGPoeJwRAAEiqgAx6ALbuxwkBEACSGiAHiDtmh9x7K9X7lJIacJwQAAEgSl6OC0pwALYRxwkBEAAS5/3460JcDxv3qx6A3UtoynFCAASAxAMQq1HjWiYa4NEQuabteBfudeEhJAAgsZvvrmPiRf3D9P1fmKw9NPgB2GYdJwRAAEhihgY+ANvA44QACABJBMhsWVAdCaNnVA/ANvU4IQACQAYHRPk96m+nNvk4IQACQAYGZJD3qO8AhOly325eOXAhDRYAEAAykA0HeY/6DjiE7vJHm18aqIhGwQAEgCjb8Z3HSO5hYqWng4Xk7769/Rjif25XLqJZIAABIEqWHPgxEqIt2+3ww7qcTqI05G6CAAgAifXOoI+RCMkUsyxq263eOxCN/gEgACTWwLWOu4aZl8QGvhMQEX1nwmneqBqvcxwAASB9FRj8O+7FeqoAgACQ/oAE7oNE/CnF3/JaHbig2HPc/LcS8Vn9goRkve94J6RRL0kOTrIorTW1oNzPYtU7jX8pvXzHgO92JPEE7iC4g/RVoNZxn2PmeXHmEqKjfKf5RFycadcBCACJ+SdGo/dh+1v9gkz5bkcSOAEIAOmrwCyZP3daaPdepzBrt4FCP2uPNi9KYj4T1gAQABLr096ZvxRVfstMH3hPMMuP2rb349gEBgcAEACibN85XffzLDQuTN5URda/xq3/KC82NBCAABBDrTuctgEIABmO0wytAkAAiKHWHU7bAASADMdphlYBIADEUOsOp20AAkCG4zRDqwAQAGKodYfTNgABIMNxmqFVAAgAMdS6w2kbgACQ4TjN0CoABIAYat3htA1AAMhwnGZoFQACQAy17nDaBiAAZDhOM7QKAAEghlp3OG0DEAAyHKcZWgWAABBDrTuctgEIABmO0wytAkAAiKHWHU7bAASADMdphlYBIADEUOsOp20AAkCG4zRDqwAQAGKodYfTNgABIMNxmqFVAAgAMdS6w2kbgACQ4TjN0CoAxABAqsHYsUyVa5joeEN9llHb8lchXprlaxcAiOaAVLvjp1mRdUdGDitE2siaOmViZOOaLIYBIBoDMkMOnrlvuM8LRDwji80vSk4hmvSdZjWLeQCIxoBUg8aZFtGqLDa+cDlZFrdt77605wIgGgNSCxvLWeiKtDe9iPmE5fu+7f0i7dkAiMaAVIPGty2iG9Le9CLmE4rO853Wr9OeDYDoDIi4h1ghv5D2phcxX8eemvs6b3wl7dkAiMaA9FqrddyrmPmStDe+UPmYLm7bzZVZzARANAdkBySBu4qJz8zCAKbnjEiun3C887OaA4AYAEivxd5/+U4Ppn/GIj48KzMYk9cimWJ6olLZ9kCb229m2TcAMQSQLE2A3HtWAIAAEPDRRwEAAkAACABJ7oFa4K5j4kX9M8iqtuOdnbwKVuqqAO4guIPo6k0t+gIgAEQLI+raBAABILp6U4u+AAgA0cKIujYBQACIrt7Uoi8AAkC0MKKuTQAQAKKrN7XoC4AAEC2MqGsTAMQAQHCqyZ42Caea9JThPH+75P2XdJxqEr/7ONUkXqPMIvIEBKeaqG0rTjVR0ymTqDwBwakm6lsqLEt827tXfYVaJD6DaPwZpBaOX8ZiXam2leWOijhaNmG3rk5bBQCiMSDVwD3LIr417U0vYj6R6Gv+aOt3ac8GQDQGZKbMmzEtdF5i4v3S3vgi5et9BonsLYdO8uR/054LgGgMSK+1OZ3G6RWm29Pe+CLlE45O9u3W2ixmAiCaA9JrrxqMn2ORtZSIFmZhAnNzyobIkmsnRlp/ymoGAGIAIDtbrMr82dQdwakmRNIZCZ76Nz+/NSswduYFIAYBkrUZkH9XBQAIAAEXfRQAIAAEgACQ5B7I8y/pybvGyrQUwB0Ed5C0vFTIPAAEgBTS2GkNBUAASFpeKmQeAAJACmnstIYCIAAkLS8VMg8AASCFNHZaQwEQAJKWlwqZB4AAkEIaO62hAAgASctLhcwDQABIIY2d1lAABICk5aVC5gEgAKSQxk5rKAACQNLyUiHzABAAUkhjpzUUAAEgaXmpkHkACAAppLHTGgqAxAHScdcy8+J+YSK0xh9tnpLWpiCPHgrUpb6PhPvfxcQn9t9/udcf9Zbk1XWup7vXA/cWIj4nbngR8YhpMi4O181RgIWqxDwe17EQ3ew7zXPj4rK6ni8gYWMZCa3MajjkNV8BIfqe7zR/mdckuQIyp+MeUWF+Jq/hUVd/BcSmQ3xuvphXp7kC0hu6HjSeJKIj8xIAdXVWQB5uO95xeXaYOyC1cHwJi7UmTxFQW08FuizHvWp7D+fZXe6A9IavBeM3MVm5fRDLcwNQe08KyDVtx7swb320AGTHP7U67p+J+bN5C4L6Oiggt7cd7ys6dKINIG9D0lhJTMt0EAY95KOAcLTct1sr8qm+a1WtAOm1Nzs47MgRqaxk5pN0EQl9ZK2AvCVC93QdvnQzNzdlXW2Q/NoBsrP5uTJ3+lR3v2NEokOZrQM5kpFBBkOs3gqIxV0ReSli2pj3B/F+SmkLiN7bi+7KogAAKctOY85ECgCQRLJhUVkUACBl2WnMmUgBAJJINiwqiwIApCw7jTkTKQBAEsmGRWVRAICUZacxZyIFAEgi2bCoLAoAkLLsNOZMpAAASSQbFpVFAQBSlp3GnIkU+B8naB9u1NNLrAAAAABJRU5ErkJggg==" vertex="1" parent="1">
          <mxGeometry x="440" y="335.5" width="30" height="30" as="geometry" />
        </mxCell>
        <mxCell id="rwMZQ3IcZu2vBEru35D5-42" value="" style="shape=image;verticalLabelPosition=bottom;verticalAlign=top;imageAspect=0;aspect=fixed;image=data:image/png,iVBORw0KGgoAAAANSUhEUgAAAMgAAADICAYAAACtWK6eAAAAAXNSR0IArs4c6QAADm1JREFUeF7tnXusHFUdx3+/2TtzWxCaVpruLgVJKffOFlEqjyiixSi0oKImJGiUl0ET1EJULK9iVCixIkp4GCOB0IgGxQRIpC0QSIupgIRnjDvb8hCBnXsp1LQidGf2zs9soUTSdufsdGbnnJnv/Xd+5/f4nu/nTrd39gwTfqAAFNijAgxtoAAU2LMCAATugAJ9FAAgsAcUACDwABRIpgDuIMl0w6qSKABASrLRGDOZAgAkmW5YVRIFAEhJNhpjJlMAgCTTDatKogAAKclGY8xkCgCQZLphVUkU0BqQejh2fCTWfGaey5GMlGRPSjGmWNwVkZctlk1tu7VB16G1A6QuYy4F1kpiPlVX0dBX2grIdhFa3XX44s3c3JR29r3JpxUgtY67gpkv3ZuBsNZsBYSj5b7dWqHLFNoAUu+4d+OuoYst8u1DiG7zneYZ+XbxdnUtAKkH7i1EfI4OgqAHPRQQkav8Ue+yvLvJHZBqd+xkK6qszlsI1NdPASE52ne8x/PsLHdAaoH7DBMfkacIqK2nAkJyv+94J+XZXa6A1ILGR5go198QeYqP2vEKsC0HvMLe6/GR2UTkCkg1bFxuCf0km9GQtSAKnNt2mjfnNUuugNQC9zYm/mpew6Ou/gpEJNdPON75eXWaLyAddy0zL+43vBD9xXean8xLINTNToF64G4g4uP6VhC5pz3qfS67LvpnzheQwF3HxIv6tyir2o53dl4CoW52CtQD91YiPqv/L0hZ7zveCdl1AUDy0hZ1YxQAIDEC1XAHKTVEAASAlBqAuOEBCACJ80iprwMQAFJqAOKGByAAJM4jpb4OQABIqQGIGx6AAJA4j5T6OgABIKUGIG54AAJA4jxS6usABICUGoC44QEIAInzSKmvAxAAUmoA4oYHIAAkziOlvg5AAEipAYgbHoAAkDiPlPo6AAEgSgBUg7FjLWb7jZFKcxv/Y4vSogIEARAA0leBerBgIVF0IxF/bGdg76gbsqcu8HlTswAMxMyPbxT2FajMX5jacdcgax0RT99FJBF/ygmPnOTnXi0yJLiD4A6yWwXeL2MHOmHlcSaasyeJhOT3vuMV+sQXAAJAdlVAFjj1UB4hooX95ZGtbdubRUxRUe8iAASA7KJAPWjcTkSnq5h+ux3O2MLPblOJNTEGgACQ9yhQDxsXkdBPVcwsJNt8x5uhEmtqDAABIO8qUAvHl5DwaiZWO4tMoivao60fmmp+lb4BCADZoUBNDmtQWHmUifdTMY4INdnZenSb22+qxJsaA0AACM2S+fuPBiNPMvM8NSPL1ilbFk5y6wW1eHOjAEjZARGy6mHjPiL6tIqNhSSKWE6ctFsPqsSbHgNASg5INXCvs4iXqhpZiL7rO81rVeNNjwMgJQakGjTOtIhWqZu4fId0A5CSAlINxo6xqLKBiGwVQITob77d/DgxdVXiixIDQEoIyCyZP3c0HHmCiWcrGVnEJyf6UJs3vqYUX6AgAFI2QOSQabVw2mNM/EE1H0snpKmPbnY2PaUWX6woAFIyQGqdxp3M9EVVG0cSnT4x2vqjanzR4gBIiQAZ+IWkIj9vj3o/KJrpB5kHgJQEkHp3/AsS8Z3Kj5EQPdC2mycSkwxiqKLFApASAFLtLDjc4uix3X7xaTfzi8jzHae7sMhP6aqCDEAKDsgMOXjmvsG+TxPTQSqmEKI3QluOeo29jSrxRY8BIEUGRMiqhY31THS8ipGFRIjlFN9urVWJL0MMACkwIPWg8SsiOk/ZyCyXtG1P6bsgyjkNDwQgBQWkFrjfYOLfDODPP7Sd5pcHiC9FKAApICDV0F1kCa8zxcFCspmEHop46upJZ9OjOvUNQAoGSF0OPYhC52kimqmT0VR7EZJv+o53k2p81nEApGCA1DruHcx8WtbGyS6/vLXd7o5t4Wdfzq6GemYAUiBA6jJ2AIWVzerbr2ekcLTct1srdOgOgBQIkGp37GQrqqzWwVh704MQ3eY7zTP2JkdaawFIgQCphWOfYKk8lJY58sojJNf5jndBXvX/vy4AKRAgvVFqQWOi33GhOpgutgeWxW3b631PPvcfAFIwQOrd8VMpsu7O3VnJG3ik7TTfPUk+eZp0VgKQggHSG6cejH+diHuvLJiWjk2GlUVeF5uP8rn54rAqxtUBIAUEpDdS76wrJ6gsJosbVkRWnBHSv87TiWnZIHmFaZFvN7X6DAVACgrIIMbMInbQby4SydK2492QRS97kxOAAJC98c9u19ZC91IWHuDvGPoeJwRAAEiqgAx6ALbuxwkBEACSGiAHiDtmh9x7K9X7lJIacJwQAAEgSl6OC0pwALYRxwkBEAAS5/3460JcDxv3qx6A3UtoynFCAASAxAMQq1HjWiYa4NEQuabteBfudeEhJAAgsZvvrmPiRf3D9P1fmKw9NPgB2GYdJwRAAEhihgY+ANvA44QACABJBMhsWVAdCaNnVA/ANvU4IQACQAYHRPk96m+nNvk4IQACQAYGZJD3qO8AhOly325eOXAhDRYAEAAykA0HeY/6DjiE7vJHm18aqIhGwQAEgCjb8Z3HSO5hYqWng4Xk7769/Rjif25XLqJZIAABIEqWHPgxEqIt2+3ww7qcTqI05G6CAAgAifXOoI+RCMkUsyxq263eOxCN/gEgACTWwLWOu4aZl8QGvhMQEX1nwmneqBqvcxwAASB9FRj8O+7FeqoAgACQ/oAE7oNE/CnF3/JaHbig2HPc/LcS8Vn9goRkve94J6RRL0kOTrIorTW1oNzPYtU7jX8pvXzHgO92JPEE7iC4g/RVoNZxn2PmeXHmEqKjfKf5RFycadcBCACJ+SdGo/dh+1v9gkz5bkcSOAEIAOmrwCyZP3daaPdepzBrt4FCP2uPNi9KYj4T1gAQABLr096ZvxRVfstMH3hPMMuP2rb349gEBgcAEACibN85XffzLDQuTN5URda/xq3/KC82NBCAABBDrTuctgEIABmO0wytAkAAiKHWHU7bAASADMdphlYBIADEUOsOp20AAkCG4zRDqwAQAGKodYfTNgABIMNxmqFVAAgAMdS6w2kbgACQ4TjN0CoABIAYat3htA1AAMhwnGZoFQACQAy17nDaBiAAZDhOM7QKAAEghlp3OG0DEAAyHKcZWgWAABBDrTuctgEIABmO0wytAkAAiKHWHU7bAASADMdphlYBIADEUOsOp20AAkCG4zRDqwAQAGKodYfTNgABIMNxmqFVAAgAMdS6w2kbgACQ4TjN0CoAxABAqsHYsUyVa5joeEN9llHb8lchXprlaxcAiOaAVLvjp1mRdUdGDitE2siaOmViZOOaLIYBIBoDMkMOnrlvuM8LRDwji80vSk4hmvSdZjWLeQCIxoBUg8aZFtGqLDa+cDlZFrdt77605wIgGgNSCxvLWeiKtDe9iPmE5fu+7f0i7dkAiMaAVIPGty2iG9Le9CLmE4rO853Wr9OeDYDoDIi4h1ghv5D2phcxX8eemvs6b3wl7dkAiMaA9FqrddyrmPmStDe+UPmYLm7bzZVZzARANAdkBySBu4qJz8zCAKbnjEiun3C887OaA4AYAEivxd5/+U4Ppn/GIj48KzMYk9cimWJ6olLZ9kCb229m2TcAMQSQLE2A3HtWAIAAEPDRRwEAAkAACABJ7oFa4K5j4kX9M8iqtuOdnbwKVuqqAO4guIPo6k0t+gIgAEQLI+raBAABILp6U4u+AAgA0cKIujYBQACIrt7Uoi8AAkC0MKKuTQAQAKKrN7XoC4AAEC2MqGsTAMQAQHCqyZ42Caea9JThPH+75P2XdJxqEr/7ONUkXqPMIvIEBKeaqG0rTjVR0ymTqDwBwakm6lsqLEt827tXfYVaJD6DaPwZpBaOX8ZiXam2leWOijhaNmG3rk5bBQCiMSDVwD3LIr417U0vYj6R6Gv+aOt3ac8GQDQGZKbMmzEtdF5i4v3S3vgi5et9BonsLYdO8uR/054LgGgMSK+1OZ3G6RWm29Pe+CLlE45O9u3W2ixmAiCaA9JrrxqMn2ORtZSIFmZhAnNzyobIkmsnRlp/ymoGAGIAIDtbrMr82dQdwakmRNIZCZ76Nz+/NSswduYFIAYBkrUZkH9XBQAIAAEXfRQAIAAEgACQ5B7I8y/pybvGyrQUwB0Ed5C0vFTIPAAEgBTS2GkNBUAASFpeKmQeAAJACmnstIYCIAAkLS8VMg8AASCFNHZaQwEQAJKWlwqZB4AAkEIaO62hAAgASctLhcwDQABIIY2d1lAABICk5aVC5gEgAKSQxk5rKAACQNLyUiHzABAAUkhjpzUUAAEgaXmpkHkACAAppLHTGgqAxAHScdcy8+J+YSK0xh9tnpLWpiCPHgrUpb6PhPvfxcQn9t9/udcf9Zbk1XWup7vXA/cWIj4nbngR8YhpMi4O181RgIWqxDwe17EQ3ew7zXPj4rK6ni8gYWMZCa3MajjkNV8BIfqe7zR/mdckuQIyp+MeUWF+Jq/hUVd/BcSmQ3xuvphXp7kC0hu6HjSeJKIj8xIAdXVWQB5uO95xeXaYOyC1cHwJi7UmTxFQW08FuizHvWp7D+fZXe6A9IavBeM3MVm5fRDLcwNQe08KyDVtx7swb320AGTHP7U67p+J+bN5C4L6Oiggt7cd7ys6dKINIG9D0lhJTMt0EAY95KOAcLTct1sr8qm+a1WtAOm1Nzs47MgRqaxk5pN0EQl9ZK2AvCVC93QdvnQzNzdlXW2Q/NoBsrP5uTJ3+lR3v2NEokOZrQM5kpFBBkOs3gqIxV0ReSli2pj3B/F+SmkLiN7bi+7KogAAKctOY85ECgCQRLJhUVkUACBl2WnMmUgBAJJINiwqiwIApCw7jTkTKQBAEsmGRWVRAICUZacxZyIFAEgi2bCoLAoAkLLsNOZMpAAASSQbFpVFAQBSlp3GnIkU+B8naB9u1NNLrAAAAABJRU5ErkJggg==" vertex="1" parent="1">
          <mxGeometry x="440" y="380.5" width="30" height="30" as="geometry" />
        </mxCell>
        <mxCell id="rwMZQ3IcZu2vBEru35D5-43" value="Raw Response" style="text;html=1;align=center;verticalAlign=middle;whiteSpace=wrap;rounded=0;" vertex="1" parent="1">
          <mxGeometry x="418.75" y="250" width="72.5" height="30" as="geometry" />
        </mxCell>
        <mxCell id="rwMZQ3IcZu2vBEru35D5-44" value="Hardware PUF" style="text;html=1;align=center;verticalAlign=middle;whiteSpace=wrap;rounded=0;" vertex="1" parent="1">
          <mxGeometry x="340.25" y="250" width="72.5" height="30" as="geometry" />
        </mxCell>
        <mxCell id="rwMZQ3IcZu2vBEru35D5-45" value="" style="endArrow=classic;html=1;rounded=0;exitX=1;exitY=0.5;exitDx=0;exitDy=0;" edge="1" parent="1">
          <mxGeometry width="50" height="50" relative="1" as="geometry">
            <mxPoint x="415" y="355" as="sourcePoint" />
            <mxPoint x="442" y="355" as="targetPoint" />
          </mxGeometry>
        </mxCell>
        <mxCell id="rwMZQ3IcZu2vBEru35D5-46" value="" style="endArrow=classic;html=1;rounded=0;exitX=1;exitY=0.5;exitDx=0;exitDy=0;" edge="1" parent="1">
          <mxGeometry width="50" height="50" relative="1" as="geometry">
            <mxPoint x="470" y="354.72" as="sourcePoint" />
            <mxPoint x="497" y="354.72" as="targetPoint" />
          </mxGeometry>
        </mxCell>
        <mxCell id="rwMZQ3IcZu2vBEru35D5-47" value="Data Obfuscation" style="rounded=0;whiteSpace=wrap;html=1;" vertex="1" parent="1">
          <mxGeometry x="510" y="330" width="80" height="50" as="geometry" />
        </mxCell>
        <mxCell id="rwMZQ3IcZu2vBEru35D5-50" value="" style="shape=image;verticalLabelPosition=bottom;verticalAlign=top;imageAspect=0;aspect=fixed;image=data:image/png,iVBORw0KGgoAAAANSUhEUgAAAMgAAADICAYAAACtWK6eAAAAAXNSR0IArs4c6QAADm1JREFUeF7tnXusHFUdx3+/2TtzWxCaVpruLgVJKffOFlEqjyiixSi0oKImJGiUl0ET1EJULK9iVCixIkp4GCOB0IgGxQRIpC0QSIupgIRnjDvb8hCBnXsp1LQidGf2zs9soUTSdufsdGbnnJnv/Xd+5/f4nu/nTrd39gwTfqAAFNijAgxtoAAU2LMCAATugAJ9FAAgsAcUACDwABRIpgDuIMl0w6qSKABASrLRGDOZAgAkmW5YVRIFAEhJNhpjJlMAgCTTDatKogAAKclGY8xkCgCQZLphVUkU0BqQejh2fCTWfGaey5GMlGRPSjGmWNwVkZctlk1tu7VB16G1A6QuYy4F1kpiPlVX0dBX2grIdhFa3XX44s3c3JR29r3JpxUgtY67gpkv3ZuBsNZsBYSj5b7dWqHLFNoAUu+4d+OuoYst8u1DiG7zneYZ+XbxdnUtAKkH7i1EfI4OgqAHPRQQkav8Ue+yvLvJHZBqd+xkK6qszlsI1NdPASE52ne8x/PsLHdAaoH7DBMfkacIqK2nAkJyv+94J+XZXa6A1ILGR5go198QeYqP2vEKsC0HvMLe6/GR2UTkCkg1bFxuCf0km9GQtSAKnNt2mjfnNUuugNQC9zYm/mpew6Ou/gpEJNdPON75eXWaLyAddy0zL+43vBD9xXean8xLINTNToF64G4g4uP6VhC5pz3qfS67LvpnzheQwF3HxIv6tyir2o53dl4CoW52CtQD91YiPqv/L0hZ7zveCdl1AUDy0hZ1YxQAIDEC1XAHKTVEAASAlBqAuOEBCACJ80iprwMQAFJqAOKGByAAJM4jpb4OQABIqQGIGx6AAJA4j5T6OgABIKUGIG54AAJA4jxS6usABICUGoC44QEIAInzSKmvAxAAUmoA4oYHIAAkziOlvg5AAEipAYgbHoAAkDiPlPo6AAEgSgBUg7FjLWb7jZFKcxv/Y4vSogIEARAA0leBerBgIVF0IxF/bGdg76gbsqcu8HlTswAMxMyPbxT2FajMX5jacdcgax0RT99FJBF/ygmPnOTnXi0yJLiD4A6yWwXeL2MHOmHlcSaasyeJhOT3vuMV+sQXAAJAdlVAFjj1UB4hooX95ZGtbdubRUxRUe8iAASA7KJAPWjcTkSnq5h+ux3O2MLPblOJNTEGgACQ9yhQDxsXkdBPVcwsJNt8x5uhEmtqDAABIO8qUAvHl5DwaiZWO4tMoivao60fmmp+lb4BCADZoUBNDmtQWHmUifdTMY4INdnZenSb22+qxJsaA0AACM2S+fuPBiNPMvM8NSPL1ilbFk5y6wW1eHOjAEjZARGy6mHjPiL6tIqNhSSKWE6ctFsPqsSbHgNASg5INXCvs4iXqhpZiL7rO81rVeNNjwMgJQakGjTOtIhWqZu4fId0A5CSAlINxo6xqLKBiGwVQITob77d/DgxdVXiixIDQEoIyCyZP3c0HHmCiWcrGVnEJyf6UJs3vqYUX6AgAFI2QOSQabVw2mNM/EE1H0snpKmPbnY2PaUWX6woAFIyQGqdxp3M9EVVG0cSnT4x2vqjanzR4gBIiQAZ+IWkIj9vj3o/KJrpB5kHgJQEkHp3/AsS8Z3Kj5EQPdC2mycSkwxiqKLFApASAFLtLDjc4uix3X7xaTfzi8jzHae7sMhP6aqCDEAKDsgMOXjmvsG+TxPTQSqmEKI3QluOeo29jSrxRY8BIEUGRMiqhY31THS8ipGFRIjlFN9urVWJL0MMACkwIPWg8SsiOk/ZyCyXtG1P6bsgyjkNDwQgBQWkFrjfYOLfDODPP7Sd5pcHiC9FKAApICDV0F1kCa8zxcFCspmEHop46upJZ9OjOvUNQAoGSF0OPYhC52kimqmT0VR7EZJv+o53k2p81nEApGCA1DruHcx8WtbGyS6/vLXd7o5t4Wdfzq6GemYAUiBA6jJ2AIWVzerbr2ekcLTct1srdOgOgBQIkGp37GQrqqzWwVh704MQ3eY7zTP2JkdaawFIgQCphWOfYKk8lJY58sojJNf5jndBXvX/vy4AKRAgvVFqQWOi33GhOpgutgeWxW3b631PPvcfAFIwQOrd8VMpsu7O3VnJG3ik7TTfPUk+eZp0VgKQggHSG6cejH+diHuvLJiWjk2GlUVeF5uP8rn54rAqxtUBIAUEpDdS76wrJ6gsJosbVkRWnBHSv87TiWnZIHmFaZFvN7X6DAVACgrIIMbMInbQby4SydK2492QRS97kxOAAJC98c9u19ZC91IWHuDvGPoeJwRAAEiqgAx6ALbuxwkBEACSGiAHiDtmh9x7K9X7lJIacJwQAAEgSl6OC0pwALYRxwkBEAAS5/3460JcDxv3qx6A3UtoynFCAASAxAMQq1HjWiYa4NEQuabteBfudeEhJAAgsZvvrmPiRf3D9P1fmKw9NPgB2GYdJwRAAEhihgY+ANvA44QACABJBMhsWVAdCaNnVA/ANvU4IQACQAYHRPk96m+nNvk4IQACQAYGZJD3qO8AhOly325eOXAhDRYAEAAykA0HeY/6DjiE7vJHm18aqIhGwQAEgCjb8Z3HSO5hYqWng4Xk7769/Rjif25XLqJZIAABIEqWHPgxEqIt2+3ww7qcTqI05G6CAAgAifXOoI+RCMkUsyxq263eOxCN/gEgACTWwLWOu4aZl8QGvhMQEX1nwmneqBqvcxwAASB9FRj8O+7FeqoAgACQ/oAE7oNE/CnF3/JaHbig2HPc/LcS8Vn9goRkve94J6RRL0kOTrIorTW1oNzPYtU7jX8pvXzHgO92JPEE7iC4g/RVoNZxn2PmeXHmEqKjfKf5RFycadcBCACJ+SdGo/dh+1v9gkz5bkcSOAEIAOmrwCyZP3daaPdepzBrt4FCP2uPNi9KYj4T1gAQABLr096ZvxRVfstMH3hPMMuP2rb349gEBgcAEACibN85XffzLDQuTN5URda/xq3/KC82NBCAABBDrTuctgEIABmO0wytAkAAiKHWHU7bAASADMdphlYBIADEUOsOp20AAkCG4zRDqwAQAGKodYfTNgABIMNxmqFVAAgAMdS6w2kbgACQ4TjN0CoABIAYat3htA1AAMhwnGZoFQACQAy17nDaBiAAZDhOM7QKAAEghlp3OG0DEAAyHKcZWgWAABBDrTuctgEIABmO0wytAkAAiKHWHU7bAASADMdphlYBIADEUOsOp20AAkCG4zRDqwAQAGKodYfTNgABIMNxmqFVAAgAMdS6w2kbgACQ4TjN0CoAxABAqsHYsUyVa5joeEN9llHb8lchXprlaxcAiOaAVLvjp1mRdUdGDitE2siaOmViZOOaLIYBIBoDMkMOnrlvuM8LRDwji80vSk4hmvSdZjWLeQCIxoBUg8aZFtGqLDa+cDlZFrdt77605wIgGgNSCxvLWeiKtDe9iPmE5fu+7f0i7dkAiMaAVIPGty2iG9Le9CLmE4rO853Wr9OeDYDoDIi4h1ghv5D2phcxX8eemvs6b3wl7dkAiMaA9FqrddyrmPmStDe+UPmYLm7bzZVZzARANAdkBySBu4qJz8zCAKbnjEiun3C887OaA4AYAEivxd5/+U4Ppn/GIj48KzMYk9cimWJ6olLZ9kCb229m2TcAMQSQLE2A3HtWAIAAEPDRRwEAAkAACABJ7oFa4K5j4kX9M8iqtuOdnbwKVuqqAO4guIPo6k0t+gIgAEQLI+raBAABILp6U4u+AAgA0cKIujYBQACIrt7Uoi8AAkC0MKKuTQAQAKKrN7XoC4AAEC2MqGsTAMQAQHCqyZ42Caea9JThPH+75P2XdJxqEr/7ONUkXqPMIvIEBKeaqG0rTjVR0ymTqDwBwakm6lsqLEt827tXfYVaJD6DaPwZpBaOX8ZiXam2leWOijhaNmG3rk5bBQCiMSDVwD3LIr417U0vYj6R6Gv+aOt3ac8GQDQGZKbMmzEtdF5i4v3S3vgi5et9BonsLYdO8uR/054LgGgMSK+1OZ3G6RWm29Pe+CLlE45O9u3W2ixmAiCaA9JrrxqMn2ORtZSIFmZhAnNzyobIkmsnRlp/ymoGAGIAIDtbrMr82dQdwakmRNIZCZ76Nz+/NSswduYFIAYBkrUZkH9XBQAIAAEXfRQAIAAEgACQ5B7I8y/pybvGyrQUwB0Ed5C0vFTIPAAEgBTS2GkNBUAASFpeKmQeAAJACmnstIYCIAAkLS8VMg8AASCFNHZaQwEQAJKWlwqZB4AAkEIaO62hAAgASctLhcwDQABIIY2d1lAABICk5aVC5gEgAKSQxk5rKAACQNLyUiHzABAAUkhjpzUUAAEgaXmpkHkACAAppLHTGgqAxAHScdcy8+J+YSK0xh9tnpLWpiCPHgrUpb6PhPvfxcQn9t9/udcf9Zbk1XWup7vXA/cWIj4nbngR8YhpMi4O181RgIWqxDwe17EQ3ew7zXPj4rK6ni8gYWMZCa3MajjkNV8BIfqe7zR/mdckuQIyp+MeUWF+Jq/hUVd/BcSmQ3xuvphXp7kC0hu6HjSeJKIj8xIAdXVWQB5uO95xeXaYOyC1cHwJi7UmTxFQW08FuizHvWp7D+fZXe6A9IavBeM3MVm5fRDLcwNQe08KyDVtx7swb320AGTHP7U67p+J+bN5C4L6Oiggt7cd7ys6dKINIG9D0lhJTMt0EAY95KOAcLTct1sr8qm+a1WtAOm1Nzs47MgRqaxk5pN0EQl9ZK2AvCVC93QdvnQzNzdlXW2Q/NoBsrP5uTJ3+lR3v2NEokOZrQM5kpFBBkOs3gqIxV0ReSli2pj3B/F+SmkLiN7bi+7KogAAKctOY85ECgCQRLJhUVkUACBl2WnMmUgBAJJINiwqiwIApCw7jTkTKQBAEsmGRWVRAICUZacxZyIFAEgi2bCoLAoAkLLsNOZMpAAASSQbFpVFAQBSlp3GnIkU+B8naB9u1NNLrAAAAABJRU5ErkJggg==" vertex="1" parent="1">
          <mxGeometry x="500" y="283" width="30" height="30" as="geometry" />
        </mxCell>
        <mxCell id="rwMZQ3IcZu2vBEru35D5-52" value="" style="shape=image;verticalLabelPosition=bottom;verticalAlign=top;imageAspect=0;aspect=fixed;image=data:image/png,iVBORw0KGgoAAAANSUhEUgAAAMgAAADICAYAAACtWK6eAAAAAXNSR0IArs4c6QAADm1JREFUeF7tnXusHFUdx3+/2TtzWxCaVpruLgVJKffOFlEqjyiixSi0oKImJGiUl0ET1EJULK9iVCixIkp4GCOB0IgGxQRIpC0QSIupgIRnjDvb8hCBnXsp1LQidGf2zs9soUTSdufsdGbnnJnv/Xd+5/f4nu/nTrd39gwTfqAAFNijAgxtoAAU2LMCAATugAJ9FAAgsAcUACDwABRIpgDuIMl0w6qSKABASrLRGDOZAgAkmW5YVRIFAEhJNhpjJlMAgCTTDatKogAAKclGY8xkCgCQZLphVUkU0BqQejh2fCTWfGaey5GMlGRPSjGmWNwVkZctlk1tu7VB16G1A6QuYy4F1kpiPlVX0dBX2grIdhFa3XX44s3c3JR29r3JpxUgtY67gpkv3ZuBsNZsBYSj5b7dWqHLFNoAUu+4d+OuoYst8u1DiG7zneYZ+XbxdnUtAKkH7i1EfI4OgqAHPRQQkav8Ue+yvLvJHZBqd+xkK6qszlsI1NdPASE52ne8x/PsLHdAaoH7DBMfkacIqK2nAkJyv+94J+XZXa6A1ILGR5go198QeYqP2vEKsC0HvMLe6/GR2UTkCkg1bFxuCf0km9GQtSAKnNt2mjfnNUuugNQC9zYm/mpew6Ou/gpEJNdPON75eXWaLyAddy0zL+43vBD9xXean8xLINTNToF64G4g4uP6VhC5pz3qfS67LvpnzheQwF3HxIv6tyir2o53dl4CoW52CtQD91YiPqv/L0hZ7zveCdl1AUDy0hZ1YxQAIDEC1XAHKTVEAASAlBqAuOEBCACJ80iprwMQAFJqAOKGByAAJM4jpb4OQABIqQGIGx6AAJA4j5T6OgABIKUGIG54AAJA4jxS6usABICUGoC44QEIAInzSKmvAxAAUmoA4oYHIAAkziOlvg5AAEipAYgbHoAAkDiPlPo6AAEgSgBUg7FjLWb7jZFKcxv/Y4vSogIEARAA0leBerBgIVF0IxF/bGdg76gbsqcu8HlTswAMxMyPbxT2FajMX5jacdcgax0RT99FJBF/ygmPnOTnXi0yJLiD4A6yWwXeL2MHOmHlcSaasyeJhOT3vuMV+sQXAAJAdlVAFjj1UB4hooX95ZGtbdubRUxRUe8iAASA7KJAPWjcTkSnq5h+ux3O2MLPblOJNTEGgACQ9yhQDxsXkdBPVcwsJNt8x5uhEmtqDAABIO8qUAvHl5DwaiZWO4tMoivao60fmmp+lb4BCADZoUBNDmtQWHmUifdTMY4INdnZenSb22+qxJsaA0AACM2S+fuPBiNPMvM8NSPL1ilbFk5y6wW1eHOjAEjZARGy6mHjPiL6tIqNhSSKWE6ctFsPqsSbHgNASg5INXCvs4iXqhpZiL7rO81rVeNNjwMgJQakGjTOtIhWqZu4fId0A5CSAlINxo6xqLKBiGwVQITob77d/DgxdVXiixIDQEoIyCyZP3c0HHmCiWcrGVnEJyf6UJs3vqYUX6AgAFI2QOSQabVw2mNM/EE1H0snpKmPbnY2PaUWX6woAFIyQGqdxp3M9EVVG0cSnT4x2vqjanzR4gBIiQAZ+IWkIj9vj3o/KJrpB5kHgJQEkHp3/AsS8Z3Kj5EQPdC2mycSkwxiqKLFApASAFLtLDjc4uix3X7xaTfzi8jzHae7sMhP6aqCDEAKDsgMOXjmvsG+TxPTQSqmEKI3QluOeo29jSrxRY8BIEUGRMiqhY31THS8ipGFRIjlFN9urVWJL0MMACkwIPWg8SsiOk/ZyCyXtG1P6bsgyjkNDwQgBQWkFrjfYOLfDODPP7Sd5pcHiC9FKAApICDV0F1kCa8zxcFCspmEHop46upJZ9OjOvUNQAoGSF0OPYhC52kimqmT0VR7EZJv+o53k2p81nEApGCA1DruHcx8WtbGyS6/vLXd7o5t4Wdfzq6GemYAUiBA6jJ2AIWVzerbr2ekcLTct1srdOgOgBQIkGp37GQrqqzWwVh704MQ3eY7zTP2JkdaawFIgQCphWOfYKk8lJY58sojJNf5jndBXvX/vy4AKRAgvVFqQWOi33GhOpgutgeWxW3b631PPvcfAFIwQOrd8VMpsu7O3VnJG3ik7TTfPUk+eZp0VgKQggHSG6cejH+diHuvLJiWjk2GlUVeF5uP8rn54rAqxtUBIAUEpDdS76wrJ6gsJosbVkRWnBHSv87TiWnZIHmFaZFvN7X6DAVACgrIIMbMInbQby4SydK2492QRS97kxOAAJC98c9u19ZC91IWHuDvGPoeJwRAAEiqgAx6ALbuxwkBEACSGiAHiDtmh9x7K9X7lJIacJwQAAEgSl6OC0pwALYRxwkBEAAS5/3460JcDxv3qx6A3UtoynFCAASAxAMQq1HjWiYa4NEQuabteBfudeEhJAAgsZvvrmPiRf3D9P1fmKw9NPgB2GYdJwRAAEhihgY+ANvA44QACABJBMhsWVAdCaNnVA/ANvU4IQACQAYHRPk96m+nNvk4IQACQAYGZJD3qO8AhOly325eOXAhDRYAEAAykA0HeY/6DjiE7vJHm18aqIhGwQAEgCjb8Z3HSO5hYqWng4Xk7769/Rjif25XLqJZIAABIEqWHPgxEqIt2+3ww7qcTqI05G6CAAgAifXOoI+RCMkUsyxq263eOxCN/gEgACTWwLWOu4aZl8QGvhMQEX1nwmneqBqvcxwAASB9FRj8O+7FeqoAgACQ/oAE7oNE/CnF3/JaHbig2HPc/LcS8Vn9goRkve94J6RRL0kOTrIorTW1oNzPYtU7jX8pvXzHgO92JPEE7iC4g/RVoNZxn2PmeXHmEqKjfKf5RFycadcBCACJ+SdGo/dh+1v9gkz5bkcSOAEIAOmrwCyZP3daaPdepzBrt4FCP2uPNi9KYj4T1gAQABLr096ZvxRVfstMH3hPMMuP2rb349gEBgcAEACibN85XffzLDQuTN5URda/xq3/KC82NBCAABBDrTuctgEIABmO0wytAkAAiKHWHU7bAASADMdphlYBIADEUOsOp20AAkCG4zRDqwAQAGKodYfTNgABIMNxmqFVAAgAMdS6w2kbgACQ4TjN0CoABIAYat3htA1AAMhwnGZoFQACQAy17nDaBiAAZDhOM7QKAAEghlp3OG0DEAAyHKcZWgWAABBDrTuctgEIABmO0wytAkAAiKHWHU7bAASADMdphlYBIADEUOsOp20AAkCG4zRDqwAQAGKodYfTNgABIMNxmqFVAAgAMdS6w2kbgACQ4TjN0CoAxABAqsHYsUyVa5joeEN9llHb8lchXprlaxcAiOaAVLvjp1mRdUdGDitE2siaOmViZOOaLIYBIBoDMkMOnrlvuM8LRDwji80vSk4hmvSdZjWLeQCIxoBUg8aZFtGqLDa+cDlZFrdt77605wIgGgNSCxvLWeiKtDe9iPmE5fu+7f0i7dkAiMaAVIPGty2iG9Le9CLmE4rO853Wr9OeDYDoDIi4h1ghv5D2phcxX8eemvs6b3wl7dkAiMaA9FqrddyrmPmStDe+UPmYLm7bzZVZzARANAdkBySBu4qJz8zCAKbnjEiun3C887OaA4AYAEivxd5/+U4Ppn/GIj48KzMYk9cimWJ6olLZ9kCb229m2TcAMQSQLE2A3HtWAIAAEPDRRwEAAkAACABJ7oFa4K5j4kX9M8iqtuOdnbwKVuqqAO4guIPo6k0t+gIgAEQLI+raBAABILp6U4u+AAgA0cKIujYBQACIrt7Uoi8AAkC0MKKuTQAQAKKrN7XoC4AAEC2MqGsTAMQAQHCqyZ42Caea9JThPH+75P2XdJxqEr/7ONUkXqPMIvIEBKeaqG0rTjVR0ymTqDwBwakm6lsqLEt827tXfYVaJD6DaPwZpBaOX8ZiXam2leWOijhaNmG3rk5bBQCiMSDVwD3LIr417U0vYj6R6Gv+aOt3ac8GQDQGZKbMmzEtdF5i4v3S3vgi5et9BonsLYdO8uR/054LgGgMSK+1OZ3G6RWm29Pe+CLlE45O9u3W2ixmAiCaA9JrrxqMn2ORtZSIFmZhAnNzyobIkmsnRlp/ymoGAGIAIDtbrMr82dQdwakmRNIZCZ76Nz+/NSswduYFIAYBkrUZkH9XBQAIAAEXfRQAIAAEgACQ5B7I8y/pybvGyrQUwB0Ed5C0vFTIPAAEgBTS2GkNBUAASFpeKmQeAAJACmnstIYCIAAkLS8VMg8AASCFNHZaQwEQAJKWlwqZB4AAkEIaO62hAAgASctLhcwDQABIIY2d1lAABICk5aVC5gEgAKSQxk5rKAACQNLyUiHzABAAUkhjpzUUAAEgaXmpkHkACAAppLHTGgqAxAHScdcy8+J+YSK0xh9tnpLWpiCPHgrUpb6PhPvfxcQn9t9/udcf9Zbk1XWup7vXA/cWIj4nbngR8YhpMi4O181RgIWqxDwe17EQ3ew7zXPj4rK6ni8gYWMZCa3MajjkNV8BIfqe7zR/mdckuQIyp+MeUWF+Jq/hUVd/BcSmQ3xuvphXp7kC0hu6HjSeJKIj8xIAdXVWQB5uO95xeXaYOyC1cHwJi7UmTxFQW08FuizHvWp7D+fZXe6A9IavBeM3MVm5fRDLcwNQe08KyDVtx7swb320AGTHP7U67p+J+bN5C4L6Oiggt7cd7ys6dKINIG9D0lhJTMt0EAY95KOAcLTct1sr8qm+a1WtAOm1Nzs47MgRqaxk5pN0EQl9ZK2AvCVC93QdvnQzNzdlXW2Q/NoBsrP5uTJ3+lR3v2NEokOZrQM5kpFBBkOs3gqIxV0ReSli2pj3B/F+SmkLiN7bi+7KogAAKctOY85ECgCQRLJhUVkUACBl2WnMmUgBAJJINiwqiwIApCw7jTkTKQBAEsmGRWVRAICUZacxZyIFAEgi2bCoLAoAkLLsNOZMpAAASSQbFpVFAQBSlp3GnIkU+B8naB9u1NNLrAAAAABJRU5ErkJggg==" vertex="1" parent="1">
          <mxGeometry x="570" y="283" width="30" height="30" as="geometry" />
        </mxCell>
        <mxCell id="rwMZQ3IcZu2vBEru35D5-53" value="" style="shape=image;verticalLabelPosition=bottom;labelBackgroundColor=default;verticalAlign=top;aspect=fixed;imageAspect=0;image=data:image/png,iVBORw0KGgoAAAANSUhEUgAAAMgAAADICAYAAACtWK6eAAAAAXNSR0IArs4c6QAADlVJREFUeF7tnX+MHGUZx59n7kpbhTYQiA20EdudLQRRKj+iiFai0IKKmkBQfpS73Z29VC1ExfKrmCqUWBFt+OnN3M61UAyCCZBIKRBIwVRAws+QADfXNqWIIkJSRFrK7TxmD0oCbXfenc7svO/M9/697/u8z/N9v5+bXm/3XSZ8wQE4sEcHGN7AATiwZwcACNIBB9o4AEAQDzgAQJABOBDPATxB4vmGVQVxAIAU5KAxZjwHAEg837CqIA4AkIIcNMaM5wAAiecbVhXEAQBSkIPGmPEcACDxfMOqgjigNSAbKoMnNIlLxDSdhXsLciaFGFNYxkjoFYutoNSordd1aO0A2dQ3eNiYxcuJ+TRdTUNfCTsgtF2Y1vQ0ey+etbI/SLj6XpXTCpCg4i0jpkv3aiIsNtoBDmlJadhZpssQ2gASVNy78dTQJRaZ97HabjjnZt4FEWkBSFDxfGLq18EQ9KCJA0JX2b5zWdbdZA7IaMU9RZjXZG0E9tfPAWY6pjTkPJllZ5kDElTc54j5yCxNwN56OiBED5QbzslZdpcpIEH/4BfIsjL9CZGl+dg72oHJ7+1z4PSbz3sjWpmOIlNARire5cz0q3RGQ9VcOCBUs32nkdUsmQISVNzVxHx2VsNjX/0dEKHryr5zfladZgyIt5aY5rUbXoj+Wm44X83KIOybngNBxV1PzMe3PX+Re8p+/VvpddG+csaAuOuIeW4EIKvKDacvK4Owb3oOjFS9lUx0XtsdRB62/frX0usCgGTlLfaNcACARBgUVPAEKTJFAASAFDn/kbMDEAASGZIiCwAIACly/iNnByAAJDIkRRYAEABS5PxHzg5AAEhkSIosACAApMj5j5wdgACQyJAUWQBAAEiR8x85OwABIJEhKbIAgACQIuc/cnYAAkAiQ1JkAQABIEXOf+TsAASARIakyAIAAkCU8r+xOnRcSDRhItELMxq1N5UW5UAEQABIWweC6tAcErmBmL60U9i66oaYLigPOS/kgIG2IwAQALJHB1pPjaaErbccT/64SEj+ae1oHlW6ZeG/8wwJAAEgu3XgpQU3HWJN6G3dB/apNhb90W44ub7xBYAAkF0ceP6M2/eZOGXrY0Q0p709srU049UDeOnSMK9PEQACQHZxIKh6txHRmUqh3z55qn3rOW8paQ0UARAA8hEHgqp7ERH/WinLIm/Zfn2qktZQEQABIB86MFodmi8ia4jVPnKCha4o+c4vDM2+UtsABICMOzBS8w6nkB5npv1UkiNEL+zbEx5zsDvwjoreVA0AASAUnL16ikzc9jQzzVQLsmydwDzn0CFnk5reXBUAKTggsnSpFWw55H4m+rpajCXkkE8qDTsPqenNVgGQggMyUvGuZaZFyjEW+ontOyuU9YYLAUiBARmteAuEaZVqhoWocJd0A5CCArKhzz222UPrmXiCCiBC9Hd7Q+nLvO7EMRV9XjQApICABDVvOoX0FDEdpBLk1uuupEc+N9sd+I+KPk8aAFIwQDb1DU8as8aeIKbPqgVZ3pUmfbG8sv6Mmj5fKgBSMECCqnsnEX9XOcYiZ9p+/XZlfc6EAKRAgHT6gaRC8ttyo/7znGW+o3EASEEACfq97xDTnaovIxGiB+1G7SQmlo4SlTMxACkAIIHjHkFNemJ3b3za3fgitJHfnTwnz6/SVeUYgOQckM1n3bj/jkkTniWmGSqhEJK3eyw6epZXH1HR510DQHIMyPjLSF4++GFmPkEpyELCzKeWGrW1SvoCiABIjgEJqt6NRLRQOcdCl9i+o/ZeEOWiZgsBSE4BGa24jjC7HcTzT3bD+X4H+kJIAUgOAQn63blk8TpjEiz0upA8QiJXl4cHHtepbwCSM0BG+/0ZYo09S8T76xQ01V5YpF7y656qPm0dAMkZIEHFu4OYTk87OKnVF9lGFpftIeeV1PbooDAAyREgL9UHD7Sa1usdnL+WUg5pSWnYWaZDcwAkR4CMVtxThHmNDsHayx5W2w3n3L2skchyAJIjQDb2eV9p9tAjiSQjwyIidG3Zdy7IsIUPtwYgOQKkNUpQ9f4VcV2oDrlr34OE82x/4H4dGgUgeQOk4p5GzHfrEK6YPTxmN5wPb5KPWSOxZQAkZ4C8/xRxKyTc+siCSYklpQuFROiNXuajZzZqm7uwndIWACSHgIxDcvbqKTRp+zyi8HAStpTSkKCIWSYL8eJOSgrx3HKjptXvUAAkp4B0Esw0tJ2+c5EpXFRqDFyfRi97UxOAAJC9yc9u1wYV71JiUv47hs7XCQEQAJIoIJ1egK37dUIABIAkBsgGxy03Q3qSifdVKWrCdUIABICoZDlSE+MCbCOuEwIgACQy/FGC1hsRg+rQA+oXYBORIdcJARAAEpX/yO+PVt0VQqz+0hCha2zfuTCysAYCAAJA9iqGMS7ANuo6IQACQGID0vEF2AZeJwRAAEgsQDb1DU8bs8ae6+ACbCOvEwIgAKRjQNQ/R/2D0gZfJwRAAEjHgHT0Oeqt/7AiubzcqF/Z8UYaLAAgAKSjGHb0OerjleUuu1H/XkebaCQGIABEOY7jLyOh8B4ixVcHCz3fG/Ye+5mV/duVN9FMCEAAiFIkO38ZCb3JTJ/X5XYSpSF3IwIgACQyOx2/jESoycxzS43a+sjimgsACACJjGhQ9e4lovmRwp0CoR/bvnODsl5jIQABIG0dCDp8j7vO7+2IwyEAASBRgDxEzCcqhkurCxcUe24rAyAAJAIQ72WVD98x4b0dcYABIACk/U/QireBmWZGhisMj7aHB56K1BkmACAApP0TpOreQMQ/bCsy5L0dcdgEIACkPSA1b7oIPctEB+xOyCS/KTXqF8UJnwlrAAgAiczpB3f+3kJEn/6IWGip7Tu/jCxgsACAABDl+AbVoW8zhbPDkF4Muefhw/zqf5UXGyoEIADE0Oh2p20AAkC6kzRDdwEgAMTQ6HanbQACQLqTNEN3ASAAxNDodqdtAAJAupM0Q3cBIADE0Oh2p20AAkC6kzRDdwEgAMTQ6HanbQACQLqTNEN3ASAAxNDodqdtAAJAupM0Q3cBIADE0Oh2p20AAkC6kzRDdwEgAMTQ6HanbQACQLqTNEN3ASAAxNDodqdtAAJAupM0Q3cBIADE0Oh2p20AAkC6kzRDdwEgAMTQ6HanbQACQLqTNEN3ASAAxNDodqdtAAJAupM0Q3cBIADE0Oh2p20AAkC6kzRDdwEgBgCysTp03JiE1zDzCYbmLJ22Rf5GIovS/NgFAKI5IEG/dzpZdEc6CctHVRY5teTXW5+jmPgXANEYkM1n3bj/jsm9m4h4auInn6+Cr9kNZ1oaIwEQjQEZrXgLhGlVGgefu5oSzrP9gfuTnguAaAzISNVdwsRXJH3ouawn8jPbr/8u6dkAiMaABBXvR8R0fdKHnsd6IrKw7Nf/kPRsAERjQDb13XToWE/rdxB8RTkQvjc2ffbNC/8Rpev0+wBEY0BarQVV9yoivqTTgy2WXi62G/XlacwMQDQHZBySireKmBakEQDTa4rQdWXfOT+tOQCIAYC0Wnz/v3z3+QaJHJFWGAyqK8T81Cd7mg8e7A68k2bfAMQQQNIMAWrv2QEAAkDARxsHAAgAASAAJH4Ggoq7jpjntqsgRKvKDacv/i5YqasDeILgCaJrNrXoC4AAEC2CqGsTAASA6JpNLfoCIABEiyDq2gQAASC6ZlOLvgAIANEiiLo2AUAAiK7Z1KIvAAJAtAiirk0AEAMAwa0mezgk3Goybgxn+dMl67+k41aT6NPHrSbRHqWmyBIQ3GqifKy41UTZqoSFWQKCW006OMxQ5tvD9fs6WKEkxe8gGv8OMtrvXSYWXal0kgUXidDisu9cnbQNAERnQKpD5wnJyqQPPZf1RM6x/fqtSc8GQDQGZEN9cGpzzNrCTPslffA5q/fafjsmzpp2y4L/JT0XANEYkFZrozXvTBG6LemDz1M9Jj6l1KitTWMmAKI5IK32Rvq9frZoERHNSSMEBtdcTyGtsIedP6c1AwAxAJCdLQb9/kHU08StJk0Ra4I8M8sd2JoWGDvrAhCDAEk7DKi/qwMABICAizYOABAAAkAASPwMZPmX9PhdY2VSDuAJgidIUlnKZR0AAkByGeykhgIgACSpLOWyDgABILkMdlJDARAAklSWclkHgACQXAY7qaEACABJKku5rANAAEgug53UUAAEgCSVpVzWASAAJJfBTmooAAJAkspSLusAEACSy2AnNRQAASBJZSmXdQAIAMllsJMaCoAAkKSylMs6AASA5DLYSQ0FQCIB8dYS07y2MpF7bb9+alKHgjp6OPBqffATbzetu5jopPbnT/fZvjM/q64zvt3d84mpP2p4EXmRiV6L0uH75jggxNOYaXZkx0IN23dqkbqUBJkCMlIdWswky1OaDWVz4QD/1G7Ufp/VKJkCsqFv8Miwx3ouq+Gxr/4O9BAfOrNR25xVp5kC0hp6pOo+zcRHZWUA9tXYAaFHbd85PssOMwdktDo0X0juzdIE7K2pA2Idb/vVR7PsLnNAWsMHVc8josx+EcvyALD3HhwQusb2nQuz9kcLQMb/qVVx/8LM38zaEOyfvQMiclvZr/8g+04y/hDPjxswWnWXC/FiHYxBD9k4wCEtKQ07y7LZfdddtXmC7GxtpM89ii1aTswn62IS+kjZAZFtRHyPFfZeOmtlf5Dybh2V1w6Qnd1vOeP2ydumvHUshTKLLDmEhXs7mgxirR0QljGLrC0iPJL1L+LtjNIWEK1PF80VxgEAUpijxqBxHAAgcVzDmsI4AEAKc9QYNI4DACSOa1hTGAcASGGOGoPGcQCAxHENawrjAAApzFFj0DgOAJA4rmFNYRwAIIU5agwaxwEAEsc1rCmMAwCkMEeNQeM48H84Mhdu5MBEvwAAAABJRU5ErkJggg==;" vertex="1" parent="1">
          <mxGeometry x="535" y="283" width="30" height="30" as="geometry" />
        </mxCell>
        <mxCell id="rwMZQ3IcZu2vBEru35D5-54" value="" style="endArrow=classic;html=1;rounded=0;" edge="1" parent="1">
          <mxGeometry width="50" height="50" relative="1" as="geometry">
            <mxPoint x="550" y="330" as="sourcePoint" />
            <mxPoint x="549.72" y="313" as="targetPoint" />
          </mxGeometry>
        </mxCell>
        <mxCell id="rwMZQ3IcZu2vBEru35D5-55" value="" style="rounded=0;whiteSpace=wrap;html=1;dashed=1;" vertex="1" parent="1">
          <mxGeometry x="610" y="240" width="180" height="230" as="geometry" />
        </mxCell>
        <mxCell id="rwMZQ3IcZu2vBEru35D5-57" value="" style="endArrow=classic;html=1;rounded=0;" edge="1" parent="1">
          <mxGeometry width="50" height="50" relative="1" as="geometry">
            <mxPoint x="550.14" y="280" as="sourcePoint" />
            <mxPoint x="550" y="220" as="targetPoint" />
          </mxGeometry>
        </mxCell>
        <mxCell id="rwMZQ3IcZu2vBEru35D5-58" value="PUF-Token" style="rounded=0;whiteSpace=wrap;html=1;" vertex="1" parent="1">
          <mxGeometry x="505" y="160" width="90" height="40" as="geometry" />
        </mxCell>
        <mxCell id="rwMZQ3IcZu2vBEru35D5-61" value="" style="endArrow=classic;html=1;rounded=0;" edge="1" parent="1">
          <mxGeometry width="50" height="50" relative="1" as="geometry">
            <mxPoint x="605" y="179.71" as="sourcePoint" />
            <mxPoint x="675" y="179.71" as="targetPoint" />
          </mxGeometry>
        </mxCell>
        <mxCell id="rwMZQ3IcZu2vBEru35D5-63" value="Cloud" style="text;html=1;align=center;verticalAlign=middle;whiteSpace=wrap;rounded=0;" vertex="1" parent="1">
          <mxGeometry x="610" y="240" width="60" height="30" as="geometry" />
        </mxCell>
        <mxCell id="rwMZQ3IcZu2vBEru35D5-64" value="" style="endArrow=classic;html=1;rounded=0;dashed=1;dashPattern=1 4;" edge="1" parent="1">
          <mxGeometry width="50" height="50" relative="1" as="geometry">
            <mxPoint x="600" y="300" as="sourcePoint" />
            <mxPoint x="650" y="300" as="targetPoint" />
          </mxGeometry>
        </mxCell>
        <mxCell id="rwMZQ3IcZu2vBEru35D5-65" value="Verifier" style="rhombus;whiteSpace=wrap;html=1;" vertex="1" parent="1">
          <mxGeometry x="660" y="285" width="80" height="30" as="geometry" />
        </mxCell>
        <mxCell id="rwMZQ3IcZu2vBEru35D5-66" value="Message Mapping" style="shape=parallelogram;perimeter=parallelogramPerimeter;whiteSpace=wrap;html=1;fixedSize=1;" vertex="1" parent="1">
          <mxGeometry x="655" y="399.5" width="90" height="34.5" as="geometry" />
        </mxCell>
        <mxCell id="rwMZQ3IcZu2vBEru35D5-67" value="" style="endArrow=classic;html=1;rounded=0;exitX=0.5;exitY=1;exitDx=0;exitDy=0;dashed=1;dashPattern=1 4;" edge="1" parent="1" source="rwMZQ3IcZu2vBEru35D5-6">
          <mxGeometry width="50" height="50" relative="1" as="geometry">
            <mxPoint x="230" y="449.5" as="sourcePoint" />
            <mxPoint x="700" y="440" as="targetPoint" />
            <Array as="points">
              <mxPoint x="235" y="460" />
              <mxPoint x="700" y="460" />
            </Array>
          </mxGeometry>
        </mxCell>
        <mxCell id="rwMZQ3IcZu2vBEru35D5-68" value="PUF&lt;div&gt;Predictor&lt;/div&gt;" style="rounded=0;whiteSpace=wrap;html=1;" vertex="1" parent="1">
          <mxGeometry x="665" y="338.5" width="70" height="39" as="geometry" />
        </mxCell>
        <mxCell id="rwMZQ3IcZu2vBEru35D5-69" value="" style="endArrow=classic;html=1;rounded=0;dashed=1;dashPattern=1 4;" edge="1" parent="1">
          <mxGeometry width="50" height="50" relative="1" as="geometry">
            <mxPoint x="699.83" y="399.5" as="sourcePoint" />
            <mxPoint x="699.83" y="380" as="targetPoint" />
          </mxGeometry>
        </mxCell>
        <mxCell id="rwMZQ3IcZu2vBEru35D5-70" value="" style="endArrow=classic;html=1;rounded=0;dashed=1;dashPattern=1 4;" edge="1" parent="1">
          <mxGeometry width="50" height="50" relative="1" as="geometry">
            <mxPoint x="699.83" y="335.5" as="sourcePoint" />
            <mxPoint x="699.83" y="316" as="targetPoint" />
          </mxGeometry>
        </mxCell>
        <mxCell id="rwMZQ3IcZu2vBEru35D5-71" value="" style="endArrow=classic;html=1;rounded=0;dashed=1;dashPattern=1 4;" edge="1" parent="1">
          <mxGeometry width="50" height="50" relative="1" as="geometry">
            <mxPoint x="745" y="299.83" as="sourcePoint" />
            <mxPoint x="770" y="220" as="targetPoint" />
            <Array as="points">
              <mxPoint x="770" y="300" />
            </Array>
          </mxGeometry>
        </mxCell>
        <mxCell id="rwMZQ3IcZu2vBEru35D5-72" value="" style="group" vertex="1" connectable="0" parent="1">
          <mxGeometry x="670" y="155" width="60" height="75" as="geometry" />
        </mxCell>
        <mxCell id="rwMZQ3IcZu2vBEru35D5-60" value="" style="shape=image;verticalLabelPosition=bottom;labelBackgroundColor=default;verticalAlign=top;aspect=fixed;imageAspect=0;image=data:image/png,iVBORw0KGgoAAAANSUhEUgAAAMgAAADICAYAAACtWK6eAAAAAXNSR0IArs4c6QAAIABJREFUeF7tXXmcHUW1rtNzJ5M3illA8BFA2fdFQED2yCIqqxCeIggqBhIyt+omIUFEGAQEwiS36t5kIlGewAtPICgCKigYHpuAsohhFxCFoIKQAJKQyXSf1yf0xMlkMreru6tv375Vvx9/kKk6y1f93e6qOnUOMNuMICCE2N3zvG0cx9mMMfYJxthmiLghAIxAxBGMsREAMHyA8icQ8VkAeIYxtggAniuXy08ZMdAKDYUAhOplO9VEQAixGyIewhg7EADGMsbWqzkoZAdEvBcA7vY8765KpXJ/yGG2WwIIWILEAJFz/ikAOIEx9kXG2FYxROkMXYyINzLGblBKPawz0PbVR8ASRB8zJoT4CiKeCwA7RBie5JDnEfG6lpaWH82aNeuVJAVbWR8gYAmi8SQIIcYj4jkAsLnGsFS6IuJ8z/MurVarT6eisEmUWIKEmGjO+ZGMsS4A2DZE97p1QUQEgGsLhcK0rq6u1+tmSI4UW4IMMZlCiO0RUQHAYY0054i4jDF2nlKq3Eh2Z9FWS5BBZmX8+PHt7e3tFyBiCQBaszhxYWxCxLsB4CtSyr+F6W/7rI2AJcgATIrF4ucB4EoA2CQnD8xbjLGTpZS358SfVN2wBOkHtxBiAmOsO9UZSEEZrU1oDTVq1KhzOzs7e1NQmRsVliDBVHLOaRE+JTczO4gj9MnV2tp6VFdX13t59jNJ3yxBGGOc8+sA4KQkgc2wrEdWrlx5xJw5c97MsI2ZMa2pCTJu3LiWjTfeeAEAHJeZGUnBEER8jjF2kFLqHymoa2gVTUuQzs7OwpIlS25sNnL0e1pfAoADy+Xy4oZ+gg0b37QEEUIsYIxRHFXTNnqTeJ63V7VafadpQajheFMShHN+EQCcZx+KVQjcs3jx4kMWLFjgWjzWRqDpCFIsFk9yHOc6+zCsgcAcKeUki0mTE4Rzvou/5njCPghrI4CIpyil5lts1kSgqd4gQognGWM72odgcAR6e3u3nz179rMWn38j0DQEEUJczhibZid/SAQelFLuxxijk3fbmuU+COd8bwB4yM54KAQmSinnhurZBJ2a4Q0CQghad+zcBPMZ20VEfMdxnM3L5TIFOTZ9yz1BOOcTAWBO08+0HgBVKWVRb0g+e+eaIKVSabS/O/MiY2xkPqfPnFeIeERLS8vTzX7XPdcE4ZxTYoVLzD1GTSOZMqn8hTFGMVyL/AiEJ1euXLmou7v773lHILcECWKtXgWAjfI+ifXyL3g734qIt40ePfq+PN41yS1BSqXSiYh4Q70enibU+65/xrTAdd2ZecqskluCcM7voWjVJnxQs+DyQgColMvlW7JgTBwbckkQzvlGAJD77+M4E5/S2EWUYE8p9fOU9CWuJq8EoWwksxJHywqMisAjrut2VKvVhjuszStBHgKAvaPOph1nBgFEvL61tZU3UlK73BFk6tSpG/b29tqrpGae8SSkLvUT201TSv0gCWGmZeSOIKVS6RhE/Jlp4Kz8eAhQhpWVK1eelPWzlNwRxEbtxntw0xyNiG84jjOuXC7fk6ZeHV25I4jd3tWZ/sz0vVBK2ZkZa/oZkjuCCCH+xRj7UBbBtjYNicCPpZSZy02WK4JMmzZtvZ6eHpuho3GZeM+yZcs+P2/ePMpOn4mWK4JwzrcFAHtlNBOPVmQjHnNdd2xWUhHliiDFYnGs4zgLI0+NHZgVBDKTiigXBJkwYcKotra24/yQ7K8BwP5ZmWVrRywE/ltK+Y1YEhIY3NAE4ZwfDQBnMcYOTwALKyJjCAQHilfU06yGI0hwS3ACIp6ZoyI39XwGMq0bAA6u5zlJwxBk8uTJ23ie9y3G2GmZnlFrXKII0GEiJdyoVyb6zBNk/Pjxre3t7ecyxui/YYmib4U1CgIPjBw58sDOzk4vbYMzTZBSqbSX53nXAMB2aQNj9WUOgaKUspq2VZkkSPDWuJAWaQDQkjYoVl/2EEDEJT09PVvOnTt3SZrWZY4gkydP3tR13VsA4JNpAmF1NQQCSkop0rQ0UwQRQnyaMXYrY2yDNEGwuhoHAf/S1XZKKUo/lErLDEFs3Y5U5rvhlSDifKXUKWk5kgmCCCGmIeJlAJAJe9IC3+qJhADtZG0ppXw50mjNQXV/IIUQ32aMXaxpt+3e3AjMk1KekQYEdSWIEOJYxtjNaThqdeQLgUKhsFEayR/qRpCOjo4dWlpafmcvN+XrwU3LGwAQ5XJZmdZXF4IE0bdUs2NT0w5a+flEABEf9RPS7Wnau9QJEhwC3s0Yo1JftlkE4iBAi/WX4gioNTZ1gnDOz/d3qy6sZZj9u0UgBALGkz2kSpDglPxPANAWwnnbxSIwJAJ+kZ+HlFJ0uGyspUoQIQTtWNHOlW0WgUQQGDZs2EdmzJhBpReMtNQIwjk/EAAymyDMCLpWqHEEAODocrl8mylFaRJkEQDsZMoRK7dpEZglpZxiyvtUCCKEoNiZa005YeU2NQK/kFIeaQqBtAjyOGNsN1NOWLlNjcDzUsptTSFgnCBCCDrvuN+UA1ZucyOAiO5rr73WtmDBAtcEEmkQhOpAnG7CeCvTIhAgYOzA0DRBQAjxT8bYaDuVFgFTCJhMDWSUIHZr19QjYeX2RwART1RKLTCBilGCCCHongfd97DNImAMAT931llKqW4TCowSxH+DUL3ssSYMtzItAv0QMBaTZZQgtpiNfYhTQqBLSnm2CV3GCDJp0qTtCoXCMyaMtjItAgMQaLw3COf8SAAwFiNjHxGLQB8CiDhVKTXTBCLG3iBCCErwVTZhtJVpERiAwBlSynkmUDFGEM75JQBACadtswgYRaAht3k5510AYCzK0ijiVnhDIQAAnyqXy4+YMNrYG0QIUWGMdZgw2sq0CPRHoKenZ73u7m4q/514M0kQWn+kmmg4cXSswEZA4HUp5UamDDVGEM75RQBwninDrVyLQIDAA1JKY4VbTRJkOgBcZqfRImAYAaMlEUwSZCIAzDEMjhXf5AiY3MEiaE0ShEo039Lk82fdN4zAypUrN5gzZ86bptQYI0ipVNoKEf9kynAr1yKAiH9WSm1hEgljBCGjOefv2yRxJqevuWUj4myllNGjBNMEecSPx9qjuafRem8KAUTcRyn1sCn5RtcgJFwIcQVjbKpJB6zspkXgJSnllqa9N/oGKZVKhyPir0w7YeU3JQLnSykvMu25UYJ0dHS0tbS0UAhAwbQjVn5TIdBbKBTG5KLCFOecap4f3VTTZ501igAiXquUOtWokkC40TdIsJN1vJ+T96Y0nLE6mgMBRNxVKfXHNLw1TpBgsb6EMTYyDYesjtwj8Gsp5WfT8jIVgnDOFQAU03LK6skvAp7n7VmpVB5Ny8O0CELhyC/7wYvD03LM6sklAjdJKcel6VkqBAnWIvYKbpozmzNdlKQaALaSUr6cpmupEWTatGnr9fT0UEXSDdJ00OrKDQJGC+WsC6XUCBIs1inLO2V7t80ioIPA8yNHjty5s7OzR2dQEn1TJQiF1wshHrPFdJKYuqaR0eN53h6VSuXJenicNkEowvdTAPC7ejhrdTYkApOklHW7eJc6QYIF+9kAMKMhp8sanSYCc6WUE9NUOFBXXQgSkOQ6ADipns5b3dlFABHvHDVq1BGdnZ1ePa2sG0GCRTsd+OxeTwCs7uwhgIiPt7a2HtDV1fVeva2rK0HOOuus9QuFwsMAYDyuv95AW/3hEKBr2o7j7FMul98KN8Jsr7oShFwrFoub0aIdAIwl/zILoZWeFAJ0xxwA9pNS/i0pmXHl1J0g5ECpVNrR87w7AGCTuA7Z8Q2LAB0iH5L2SXkttDJBEDIy+Ny6FQD2rWW0/XvuEFjouu5x1Wr1nax5lhmC9AEjhLiSMTY+a0BZe4whMENKOd2Y9JiCM0eQYHfrBMbY1YyxD8X0zw7PKAJ+Zdo3AOBUKeXtGTVxlVmZJAgZxjnfFgB+whjbMcsAWtsiIXAjAEzIyk7VUB5kliB9RheLxXMcx7k00jTYQZlCINilmiyl/FmmDBvCmMwTJPjk2gIRuwEgtauWjTKBjWAnIr4DAFSJdlYj2NvfxoYgSL+3yU6O45QYY19vNKCb0V6/+uy/AKDbdd2uarX6RiNi0FAE6QOYc06HimcwxqjEgj1gzNiTh4hLAOCKtra27ssvv/ztjJmnZU5DEqS/h0II2vGawBj7jJbntnOiCASkuNXfVFkgpfxFosLrKKzhCdKH3fjx49vb29sPYowdzhg70AZBpvJU3eP/MN3r471QSvl/qWhMWUluCDIYbkKI3RHxk/6ZyicAYP0gNxfl52qnf2OMfVwTb4oujVtumNKw7qept6/7A4yx3ohjVw1DRLqwRv7rtBcYY6T7Zc/z/tLS0vJCuVy+T0dAo/bNNUGGmhQhRKf/vFygM3GIeJRS6uc6Y9ZB3NkUXaMjBxFnKqViZ8ovlUonIuINOroZY6kkita0KZXuliAaMEspE8ErYtZ7CuRbqGHuoF1PO+204SNHjlyuIwcRL1BKfVdnTF76JjLhjQgG5/xCADhfx/akCFIsFsc6jqP1sAPAweVymb75Y7XOzk5n6dKlro4QSxAdtHLS1xIk/ERagoTHKjc9LUHCT6UlSHisctPTEiT8VFqChMcqNz0tQcJPpSVIeKxy09MSJPxUWoKEx6pmz8mTJ2/qed4miNgLAG+2tbW9mcV4nCjnIEntYgkhDmaM3V0TzH4dAODApA7nhBCoozur5yDTp08fsWLFivURcX3P81oYY69Wq9VXNX0bsnusbd5SqXSU53ljAWBPRNx8XUkXgnBnOnl9ABEXmq5tHQYgS5AwKK3uk4mDQiHEpynmDhH3BYADGGPrrcOLVxhjlATi957n3V2pVH6p5W3/HybdgUGaHrpD/FUA+LDueOqPiJSIuOI4zvxyuax1aBVF32BjGo0giHiQUorinmI33TdIPT+xqGzGihUrTgUASkG6fRTnKZCSrnBThLFuSqHQb5COjo6POo7TGRgaxc7BxryFiBcqpSpJCQwrxxIkLFKrftBSP0kPTvypbN95Q7wpwjvx754zhg0bdvGMGTPeDTM4FEGEEFPpQY4Q5BbGBurzF//78XQp5V1hB8TtJ4SYyRibHFYOIr6vlPqPsP2H6hdlDVLnN8gVSqlpSfgeRkaxWDzOcRzK6P6fYfpH6EM/zNOUUlfVGjskQYJcVTcAwCG1BCX09+lSylSyvnPOrweA/wprNyL+Qyn1sbD9kyZIwov0N/1P3NFhfUHE+UqpU8L2j9NPCPE9xti34sgIOxYRr1++fPk35s2bt2xdY9ZJkODW3kIA2CGswiT6IeL/KqW+koSsGg/p7xlje4bVg4jPKqUifQMP1FHvNwjn/CUA2Dys77S54r/d99foH6mrEIIW05+LNDjiIES813GcI9a1Fh6UIMGb4wEA2Dai3rjDjNaj85PT0av7NU0jb5NSHq05ZtDuUQiS8BvkTsbYoTq+0H0ak2l6/DRPPwaAL+nYlGDf+5YuXXr41Vdf/f5AmWsRJNg1uB8AdknQgCiijFUWEkJ00C6ajlGImNh3eL0JwjmvAsAkHf89z/t6pVL5kc6YsH0555cBQF2zKyLiz5VSR9UkCOf8pwBwXFjnDPbzaL876TOTcePGtYwZM+bPjLFNdWz3P7G+5H9i6V40GlRFPcPdySAhBGWFqblA7W88Ij49atQoKqSZaEGbYEH+U525MNh3rfOeNd4gQgj69p9v0ABd0a+sWLFi17lz59I+diKNc34GAHxfV5jruhsmlbomyhskyV2sUqm0FdXh0MXA87wvVyqV63XHrav/lClTPt7b2/tk1PO0pOzoL8fzvD0rlQoVdlrVVhNECEF3tQm0TNUxT3LRLoSgRfbDEfbVF0kpE/vkrDdBaOI556/olptAxDcpaiKpEgWcc1rnZi2b/xN+5sfdBiMIfZPTt3nmGgDsVC6Xn4pjWKlUGuN53kO6DwXpDPbMr4ijv//YKARJcpEefGZF3U59BgD2j7tgL5VKByFiJjOhIOLpfWckq94gtGvV2tpK8StxDsL+yRi7HQAe9TzvRcdx2hFxSz/2ilLwHAwAw6M+YHHfIqVSaS/P827xP60inWMg4seUUv+Iav/AcVEI4nneAZVK5f6kbJg0adJ2hULhmSjyKMeu4zhHxfnR8jPOUA6ttRbFGvZQiNJCRKQYP4q7ov/fmjG2F2PsswAwSkPWwK7PSClXHW+sIkicBNF0PuDL6BxqAUtRl8uXL5/gOM65ET5vPvgWjPgW4ZyfBwAXxQDrf6SUX40xfq2hWSBI8JlFP2hHRPEtSCt6rpSyqjve3wjaxd8IekJ3XPA2p6yNFxcKhSuHKvIphKCDTcpcs0UUPf7Zz2EU2bGKIP7inNYeW+kK8heOd7e1tR0TNq5FCLGbvzP1awD4qK4uxthjhULhwDCVT6dMmbJBb2/v8QBwTpD/KoK6D4a4rrtjtVp9OrKAQQZGIUjSn1jBvGuH3Q90hwJPAWBmW1vbzWGuNcQ8RljsOM5nZs2a9XyY+SiVSqMRkeqP0FtFqyHitUqpUyEqmxHxj2+//fbegx2uDGUJkYQx9riWtf/uvBQRf+UfKNFba42GiB+h2B0AoF8MbUAGswcRr1JKnR7R1nUOywpBApIkeXpNnzt0H2MxY2ywEs47IuLhAEBzpdvec11312q1+qLOwI6Ojo84jvMHzcgBWnf+Sym1HgghKAjtch2lQd8t/U8P+vbTblEO6rSVxB/weltb2zZhfhV1VUUhSJLbvP3tDbZan42zRtT1P0p/ipsrl8s3RhlLGTb99c7qrVsNGfsTQaIslmJfoOGcP5GB0/p1YuV53hfiXLSp8RbV/rQx8YnVZ6MQgpJ/d2s8OGl3pdy/sQJmhRDkH/kZuvkR3OcQQbTWH4joep43Om5FUs75NwFgXmhrU+yIiLOVUsa2vOt9kj4YlEIISqn6hRRhDq3K87zPVSqVO0IPGKRjlF07RPwREUTrfjIi/kYppRXoNphjEydO/NiwYcMyUzC+n413SSkPizMZtcZG+cQy+QYhe2Munmu5HPnvfWuByAL6DdSNYqZI3ygEuVIpdWYSBvuvdjpb2DAJWQnJeHDZsmWHDnU/IAk9WSQI+TV16tQNe3t7H4yxNZoEPANlPCWl3CkJwZzzmwDgeA1ZL0QhyPeUUt/WULLOrkIICvtIZMcpAXtuXLp06am6u3JR9GaVIORLcNXh1gyFgNznJ+2mw+bYjXPeBQBTwgpaddaj+4nFGFNSShFWyVD9hBB/ZIztnISsODL8ddV3lFIXx5GhMzYKQZI+Sa9lrxDiB3QNulY/039HxMeVUrQLFbtxzudo5lR4jwhCF4d07v7eJKUcF9vaDwLm3ooZEhDXjNc9zzupUqn8Jq4gnfFRCGJ6DTKY/VnYSEHEN5RSiXyGc84p3Cj0pTdE/CsdFGpttyZ1N3vy5Mm7ep73B50HK+G+tINGd+CXJiy3prhGIQg5QmmeHMehQNZjajpmqIN/d3w7pdRzccULIejaBEWth22PEEFuBADdN8LYuDXp6niLbC5jrCvqIWdYZGt8Wmqfg5g6KAzrT6lUouSAlEzhi2HHJNUvibRDQgjawtaqDkbhJvSJRU5T6LNO+52Ucm+dAf37UnpS13WfT/H09hZEvMnzvFvjnt9E9bn/uEZ6gwz0t6OjY5NCoXC853knUNh7EnjUkkGL5UKhsPnMmTMpYjxS86shU7LCHXUG+wnnOFAoOCLSbpJuO1tK2aU7iPpzzilbytgoY9c1JogupfXUq4j4dwB4le5/tLS03FGv7I3rsrWRCdLfJwoKdV33WETc2T/03ZgxRjXrx9D1AAM51CInzRBC0AZMlJ3XHfqied+IcpOQFjzlcvk2nQfdTyc0FwCinqOc5wes3Zx0dK2O/Un0jUKQtHexkvBzoIxSqUTBipSL7DtR5CPiZUoprZxZ/uEgpci9Rlcf3XlRSm3RRxBJP+y6Qqg/IlZaW1vPrRWGTtddVx3dA0T9NKO7B5dGsTFrY6IQpB67WKZwE0JQQdBIJKFLUq7rnlori/uECRNGDRs2TAJA1Ls8nX42/wv7Lkzt5DjOohiALEbE71HqlEql8tcB39uUkfsEnTSfA+1AxNeUUmNi2Jepoc1OkOAzmz6D6ZNMu/lXoJfRHZTga2KNqxPBD/HnKTsj5fLSFh4M8Dzv4/Qs90/a8LN6buUN5Yi/vpjqx+ZTLt1ctCwGK6YNLOd8ur9Jc1naekPq+6GU8pvUdzVB/Mx22w52ESmkQGPdKJOG4zibZm2hHcfhKG+Qem/zxvF3sLEUHNnT00NfGzrnEkmbMZg8uui1dV+ZhDXyYnHOLw2uqaZhSCgdSediCqXUcCfO+Tg/57HW5R8AOLZcLt9i2LRUxQshKJSFQlqy1Ir979mvQZCgJgNdpt8mIxYnnjAhC35FvKR2jZ+P6rQs2J+kDREibJNUP1DWWoGRa+XmjXlnPEnjFy1btmwf06HnSRpcS1YQtjE1Rv6xS3p7e7tnz56tm3i7lml1+3vwqfVIBn6UlzqOs8usWbMo/dXqNmh2d845ZQShTwCnTsi94Lruvkml+qyTD6vVUjZ5RDyfMfYNAGiNY48f7rGCUqe2tLRcHOdkOY4NSY8N8KEsizolGRIzg4ojUa3NarX60ECh66wPIoSg17mRbN5DeYaIz61cufLg7u7uvyeGQB0FCSFov5/2/ZNulCiN9upTKTiUtPED5QXJI+4FgM1M6+ovnyIwKL5MKUUlIdZqQ1aY8kNC6KIKZXuPvJ+s4ywi3jF8+PAvmcgkomNHEn0pWtl13fmU8C4JeUPIeKS3t/eU2bNnr5UKybDexMUHoSuU6Z0q2BpviPii67pHDoVdzRqFkyZN2rhQKNzEGKMDP2MNES9WSkU9XTVmVxTBVB4bESlbTFrtPc/zjqpUKlq119MyTlePECKNPNE/HTZs2Gm1kh7WJAg519nZ6SxZsoQOTi6KmBVxKIwWAcDXy+UyLdQavpVKpWMocpgxVkjTGVqbUK7bdX0qpGlLErpKpdIBnuddBQCUbzfJ9jwinu3fUgz1AxaKIH3WBTsOU0hB3GhNP4P2q47jdJXLZZWk9/WU5d+xp/p6kYvWJ2F7HoIa++PAOad8ziLuDzNFeNNvvVLqSh2ctQjSJ5iSUb///vtUT+5kzTsBqzJy+2HRc6WUv9AxNOt9qSiN/5nzaMS0mom5R1dUAWDXvpPgxATXWRDnnKKAKZeaTgK55ZSmys/PfLVS6idRXIhEkP6K6HBxxIgRe1FOXETcxM+8vdanBQAscV33/v6Ve6IYm9Ux48ePb29vb6dPxESq4Mb1k+73KKX2iSsnq+OLxeK+juNQ4Z0PD7QREZf7n+x/RcQXlFJUyThWi02QWNpzMjiLITqMsSlSylk5gbhubliCxIReCEFvTkr+HOsAMKYZgw1/13XdLfNy2GoAn1AiLUFCwbTuTkKImxljx8YUQ8MpipTyJLcEmQ0/FFemf/X1+35lLK2EzXF15m28JUiMGaXkE3798DUuiGmKo7if2Z7n/bJSqVBSgdUtOGikTBwdUUvHkbC2traReTh41cQ1se6WIDGgjHN11PO8b1UqlVAXhjjnlwAAbXdqN39X6yw/8VqWSxto+5TmAEuQGGhHyEq5Slv/Kqph1Ue9gYeIjyql9gyrx/ZbEwFLkIhPRLFY3NpxnFC18vqrQMRupdRZUdT6VxGiXIv2XNcdlYV8YFF8rvcYS5CIMxAx2vkV13W3rlarFBai3YJMHS/q5jNOogCNtrE5GWAJEnEi/TsMFLIwXnP4yVLK6zTHrNGdcz4FALQS9iHid5VSF8TR26xjLUEizrwQQrc6bA8AjIybfCKIrqYqsjotl1eXdQCI2tcSJCJyQojf6lwBoHJeSqmDIqpbY5huXUnG2O1SSsoVZZsmApYgmoD1dRdCPK0Te+Wn8L/eT+H/5YjqBhJEt+DmY1LKPZLQ3WwyLEEizrjurzgiLlBKnRhR3UCCUGRq6DIEdI1ZKbVdErqbTYYlSMQZF0JQysvdwg5HxPuVUolcJeWcP6ST4zjJMmZh/c1LP0uQiDMphKB7Bp8JOxwR31FKjQjbf6h+QghKNKATq7VQSqlzjyIJM3MhwxIk4jRyzr8PAGdoDj9MSnmX5pg1uke5726DFqMjbgkSETvOecm/Pah13wIRf+vfGd8vospVw4QQjzLGtKq+2nis6IhbgkTErlgs7uE4TpREE9+UUv4wilohxGTGmHaW+97e3u3zkBYoCmZxx1iCxECQc/7PKDnDXNfdvVqtrlHXopYZlKPML1t3T61+g/z9FSllqsnYItiY2SGWIDGmJkJh+v7aJkopqeJuzVYsFs9xHCdqda0ZUsrpNZXYDoMiYAkS48GIUQC1T+s9QY6mQZMLlEqlgzzPmwkAkQ/5XNfdsdFrOsaYothDLUFiQiiEoJyuh8YU8zpjjCoNv9h35RYR99WN2h1oAyLeqZQ6PKZtTT3cEiTm9MdYrMfUXHu453mHVioVOq+xLSICliARges/zC8ceQNjLJEwkgTMWSUCEW9WSoUOR0lKb97kWIIkMKNCiE8g4lNx07EmYEqfiHcBYPtyuawbFp+gCfkQZQmS0Dxyzg8DgDvqWHSovyexL2YlBEvDi7EESXAKI17DTdCCVaLmSCknJS20WeVZgiQ880KIDsYY1bdIvSHiVUopqhxrW0IIWIIkBGR/McVi8UzHcUIdAiao/mwppdZd9QR151aUJYihqQ1qhcz33yajDanoE9vred4plUrlesN6mlK8JYjBaS+VSmM8z7sMAE42oQYRn3Yc58xyuXyfCflWJmOWICk8BcFhIlWjDX3BqoZZdPL+7ahRwSm4nBsVliApTmWxWBzrOM7X/DOTcQAwXFc1pRH1ixT9sKWl5Zq46YN0dTdrf0uQOs1kiZ5CAAAAMUlEQVQ8kQUAqHLwVgCwKVXnYoxRha7VVZMQ8Um/5Bh9Pj3Y09NzZ15qx9cJ8khq/x8b6orfA9rA/AAAAABJRU5ErkJggg==;" vertex="1" parent="rwMZQ3IcZu2vBEru35D5-72">
          <mxGeometry x="5" width="50" height="50" as="geometry" />
        </mxCell>
        <mxCell id="rwMZQ3IcZu2vBEru35D5-62" value="Cloud" style="text;html=1;align=center;verticalAlign=middle;whiteSpace=wrap;rounded=0;" vertex="1" parent="rwMZQ3IcZu2vBEru35D5-72">
          <mxGeometry y="45" width="60" height="30" as="geometry" />
        </mxCell>
        <mxCell id="rwMZQ3IcZu2vBEru35D5-73" value="Allow？" style="text;html=1;align=center;verticalAlign=middle;whiteSpace=wrap;rounded=0;" vertex="1" parent="1">
          <mxGeometry x="740" y="190" width="60" height="30" as="geometry" />
        </mxCell>
      </root>
    </mxGraphModel>
  </diagram>
</mxfile>
